<svg width="146" height="135" viewBox="0 0 146 135" fill="none" xmlns="http://www.w3.org/2000/svg">
<path d="M82 106C82 88.3269 96.3269 74 114 74C131.673 74 146 88.3269 146 106V134H82V106Z" fill="url(#paint0_linear_142_321)"/>
<path d="M63 130.92C63 131.536 62.608 131.816 62.048 131.592L24.472 118.264C24.024 118.096 23.8 117.704 23.8 117.256L23.8 112.16C23.8 111.712 24.024 111.264 24.472 111.096L62.048 97.768C62.608 97.544 63 97.824 63 98.44L63 103.312C63 103.76 62.832 104.096 62.328 104.264L55.496 106.56L55.496 122.8L62.328 125.152C62.832 125.32 63 125.6 63 126.104L63 130.92ZM49.896 120.896L49.896 108.464L31.584 114.68L49.896 120.896ZM63 90.7999C63 91.3039 62.664 91.5839 62.16 91.5839L23.8 91.5839C23.296 91.5839 22.96 91.3039 22.96 90.7999L22.96 86.3199C22.96 85.8159 23.296 85.5359 23.8 85.5359L62.16 85.5359C62.664 85.5359 63 85.8159 63 86.3199L63 90.7999ZM63.336 68.7683C63.336 72.8563 61.376 75.9363 56.28 75.9363L40.376 75.9363L40.376 79.4643C40.376 79.9683 40.04 80.2483 39.536 80.2483L36.4 80.2483C35.896 80.2483 35.56 79.9683 35.56 79.4643L35.56 75.9363L29.12 75.9363C28.616 75.9363 28.28 75.6563 28.28 75.1523L28.28 70.6163C28.28 70.1123 28.616 69.8323 29.12 69.8323L35.56 69.8323L35.56 65.4083C35.56 64.9043 35.896 64.5683 36.4 64.5683L39.536 64.5683C40.04 64.5683 40.376 64.9043 40.376 65.4083L40.376 69.8323L55.552 69.8323C57.4 69.8323 58.184 68.9363 58.184 67.3683C58.184 66.9203 58.184 66.2483 58.128 65.6323C58.016 64.9603 58.296 64.6243 58.856 64.6243L61.88 64.6243C63 64.6243 63.336 67.0883 63.336 68.7683ZM63 57.9874C63 58.4914 62.664 58.7714 62.16 58.7714L36.4 58.7714C35.896 58.7714 35.56 58.4914 35.56 57.9874L35.56 53.7314C35.56 53.2274 35.784 52.9474 36.456 52.9474L39.76 52.7794C37.016 51.7714 34.888 49.9794 34.888 46.6754C34.888 45.4434 35.168 44.6034 35.504 44.1554C35.784 43.7634 36.064 43.6514 36.568 43.6514L40.152 43.6514C40.768 43.6514 40.936 44.0434 40.768 44.7154C40.544 45.3874 40.488 46.0034 40.488 46.7314C40.488 51.0434 43.848 52.7234 47.376 52.7234L62.16 52.7234C62.664 52.7234 63 53.0034 63 53.5074L63 57.9874ZM63.672 26.2052C63.672 34.3812 57.4 40.4292 49.28 40.4292C41.16 40.4292 34.888 34.3812 34.888 26.2052C34.888 18.0852 41.16 12.0372 49.28 12.0372C57.4 12.0372 63.672 18.0852 63.672 26.2052ZM49.28 34.6052C54.544 34.6052 58.072 30.9652 58.072 26.2052C58.072 21.5012 54.544 17.8612 49.28 17.8612C44.016 17.8612 40.488 21.5012 40.488 26.2052C40.488 30.9652 44.016 34.6052 49.28 34.6052Z" fill="#F2F2F2"/>
<rect x="89" y="81" width="50" height="50" rx="25" fill="#EBE6F2"/>
<path d="M101.104 111.692C98.576 111.692 96.8 109.356 96.8 105.98C96.8 102.604 98.576 100.268 101.104 100.268C103.632 100.268 105.408 102.604 105.408 105.98C105.408 109.356 103.632 111.692 101.104 111.692ZM101.104 109.852C102.48 109.852 103.456 108.268 103.456 105.98C103.456 103.692 102.48 102.108 101.104 102.108C99.728 102.108 98.752 103.692 98.752 105.98C98.752 108.268 99.728 109.852 101.104 109.852ZM107.734 111.628C107.014 111.628 106.454 111.084 106.454 110.364C106.454 109.644 107.014 109.084 107.734 109.084C108.47 109.084 109.014 109.644 109.014 110.364C109.014 111.084 108.47 111.628 107.734 111.628ZM114.3 111.692C112.188 111.692 110.588 110.332 110.364 108.46H112.348C112.54 109.292 113.324 109.852 114.3 109.852C115.436 109.852 116.3 109.084 116.3 108.028C116.3 106.988 115.452 106.188 114.364 106.188C113.644 106.188 112.924 106.54 112.572 106.988H110.7L111.276 100.46H117.484V102.252H112.908L112.652 105.052C113.116 104.716 113.82 104.492 114.556 104.492C116.62 104.492 118.252 106.044 118.252 108.076C118.252 110.14 116.54 111.692 114.3 111.692ZM121.657 105.532C120.121 105.532 118.969 104.396 118.969 102.892C118.969 101.404 120.121 100.268 121.657 100.268C123.177 100.268 124.329 101.404 124.329 102.892C124.329 104.396 123.177 105.532 121.657 105.532ZM120.137 111.5L128.137 100.46H130.057L122.057 111.5H120.137ZM121.657 104.092C122.313 104.092 122.825 103.564 122.825 102.892C122.825 102.22 122.313 101.724 121.657 101.724C120.985 101.724 120.473 102.22 120.473 102.892C120.473 103.564 120.985 104.092 121.657 104.092ZM128.521 111.692C127.001 111.692 125.849 110.556 125.849 109.052C125.849 107.548 127.001 106.428 128.521 106.428C130.041 106.428 131.193 107.548 131.193 109.052C131.193 110.556 130.041 111.692 128.521 111.692ZM128.521 110.236C129.193 110.236 129.705 109.724 129.705 109.052C129.705 108.38 129.193 107.868 128.521 107.868C127.849 107.868 127.353 108.38 127.353 109.052C127.353 109.724 127.849 110.236 128.521 110.236Z" fill="#30B67D"/>
<defs>
<linearGradient id="paint0_linear_142_321" x1="114" y1="74" x2="114" y2="134" gradientUnits="userSpaceOnUse">
<stop stop-color="#D7B8FF"/>
<stop offset="1" stop-color="#3A0085"/>
</linearGradient>
</defs>
</svg>
