<svg width="146" height="256" viewBox="0 0 146 256" fill="none" xmlns="http://www.w3.org/2000/svg">
<path d="M82 140C82 122.327 96.3269 108 114 108C131.673 108 146 122.327 146 140V255H82V140Z" fill="url(#paint0_linear_142_320)"/>
<path d="M63 251.92C63 252.536 62.608 252.816 62.048 252.592L24.472 239.264C24.024 239.096 23.8 238.704 23.8 238.256L23.8 233.16C23.8 232.712 24.024 232.264 24.472 232.096L62.048 218.768C62.608 218.544 63 218.824 63 219.44L63 224.312C63 224.76 62.832 225.096 62.328 225.264L55.496 227.56L55.496 243.8L62.328 246.152C62.832 246.32 63 246.6 63 247.104L63 251.92ZM49.896 241.896L49.896 229.464L31.584 235.68L49.896 241.896ZM63 207.983C63 208.431 62.776 208.823 62.328 208.991L36.512 219.239C35.896 219.463 35.56 219.183 35.56 218.567L35.56 214.031C35.56 213.583 35.784 213.247 36.232 213.079L56.112 205.687L36.232 198.351C35.784 198.183 35.56 197.791 35.56 197.343L35.56 192.863C35.56 192.247 35.896 191.967 36.512 192.191L62.328 202.439C62.776 202.607 63 202.999 63 203.447L63 207.983ZM29.68 183.254C29.68 185.27 28.112 186.782 26.152 186.782C24.248 186.782 22.68 185.27 22.68 183.254C22.68 181.294 24.248 179.782 26.152 179.782C28.112 179.782 29.68 181.294 29.68 183.254ZM62.16 186.334L36.4 186.334C35.896 186.334 35.56 186.054 35.56 185.55L35.56 181.014C35.56 180.51 35.896 180.23 36.4 180.23L62.16 180.23C62.664 180.23 63 180.51 63 181.014L63 185.55C63 186.054 62.664 186.334 62.16 186.334ZM63.672 160.901C63.672 168.741 57.456 174.117 49.28 174.117C41.16 174.117 34.888 168.741 34.888 160.901C34.888 156.365 36.904 153.117 40.096 151.213L36.4 151.101C35.896 151.101 35.56 150.821 35.56 150.317L35.56 146.229C35.56 145.725 35.896 145.445 36.4 145.445L62.16 145.445C62.664 145.445 63 145.725 63 146.229L63 150.317C63 150.821 62.664 151.101 62.16 151.101L58.52 151.213C61.712 153.173 63.672 156.421 63.672 160.901ZM49.28 168.237C54.6 168.237 58.128 164.653 58.128 159.725C58.128 154.853 54.6 151.437 49.336 151.437C44.016 151.437 40.432 154.853 40.432 159.725C40.432 164.653 44.016 168.237 49.28 168.237ZM63 138.271C63 138.775 62.664 139.055 62.16 139.055L58.576 139.055C58.184 139.055 57.848 138.943 57.568 138.663L40.544 124.551L40.544 138.103C40.544 138.607 40.264 138.887 39.76 138.887L36.4 138.887C35.896 138.887 35.56 138.607 35.56 138.103L35.56 118.615C35.56 118.111 35.896 117.775 36.4 117.775L39.984 117.775C40.376 117.775 40.712 117.943 40.992 118.167L58.016 132.335L58.016 118.559C58.016 118.055 58.296 117.719 58.8 117.719L62.16 117.719C62.664 117.719 63 118.055 63 118.559L63 138.271ZM29.68 108.277C29.68 110.293 28.112 111.805 26.152 111.805C24.248 111.805 22.68 110.293 22.68 108.277C22.68 106.317 24.248 104.805 26.152 104.805C28.112 104.805 29.68 106.317 29.68 108.277ZM62.16 111.357L36.4 111.357C35.896 111.357 35.56 111.077 35.56 110.573L35.56 106.037C35.56 105.533 35.896 105.253 36.4 105.253L62.16 105.253C62.664 105.253 63 105.533 63 106.037L63 110.573C63 111.077 62.664 111.357 62.16 111.357ZM63.672 84.9162C63.672 93.0922 57.4 99.1402 49.28 99.1402C41.16 99.1402 34.888 93.0922 34.888 84.9162C34.888 76.7962 41.16 70.7482 49.28 70.7482C57.4 70.7482 63.672 76.7962 63.672 84.9162ZM49.28 93.3162C54.544 93.3162 58.072 89.6762 58.072 84.9162C58.072 80.2122 54.544 76.5722 49.28 76.5722C44.016 76.5722 40.488 80.2122 40.488 84.9162C40.488 89.6762 44.016 93.3162 49.28 93.3162ZM63 63.8702C63 64.3742 62.664 64.6542 62.16 64.6542L36.4 64.6542C35.896 64.6542 35.56 64.3742 35.56 63.8702L35.56 59.6142C35.56 59.1102 35.784 58.8302 36.456 58.8302L39.816 58.6062C37.016 57.0382 34.888 54.2942 34.888 49.9822C34.888 44.1582 38.92 40.0142 46.144 40.0142L62.16 40.0142C62.664 40.0142 63 40.3502 63 40.8542L63 45.2782C63 45.7822 62.664 46.0622 62.16 46.0622L47.264 46.0622C42.952 46.0622 40.488 48.1902 40.488 52.0542C40.488 55.9182 42.952 58.6062 47.264 58.6062L62.16 58.6062C62.664 58.6062 63 58.8862 63 59.3902L63 63.8702ZM63.672 19.1687C63.672 28.1287 57.344 33.9527 49.168 33.9527C41.104 33.9527 34.888 28.3527 34.888 20.0087C34.888 11.7767 41.104 7.01669 47.936 7.01669C50.344 7.01669 51.52 7.52069 51.52 9.59268L51.52 28.0727C55.888 27.3447 58.8 24.0967 58.8 18.6647C58.8 15.9767 58.128 13.7927 56.672 11.6087C56.448 11.2727 56.504 10.9367 56.84 10.7127L58.968 9.14468C59.416 8.80868 59.752 8.92068 60.2 9.36868C62.552 11.7767 63.672 15.3047 63.672 19.1687ZM47.152 28.1287L47.152 12.3927C42.672 12.7287 39.984 15.6967 39.984 20.0087C39.984 24.3207 42.616 27.5127 47.152 28.1287Z" fill="#F2F2F2"/>
<rect x="89" y="115" width="50" height="50" rx="25" fill="#EBE6F2"/>
<path d="M102.364 145.5V136.94C101.756 137.484 100.908 137.82 100.06 137.82V136.028C101.164 136.028 102.252 135.436 102.924 134.46H104.268V145.5H102.364ZM110.059 145.692C107.867 145.692 106.187 144.22 106.187 142.284H108.155C108.155 143.18 108.987 143.852 110.043 143.852C111.067 143.852 111.931 143.212 111.931 142.22C111.931 141.292 111.147 140.572 110.011 140.572H108.603V139.02H110.011C110.987 139.02 111.723 138.412 111.723 137.548C111.723 136.668 110.939 136.108 110.059 136.108C109.115 136.108 108.363 136.7 108.363 137.516H106.411C106.411 135.676 107.979 134.268 110.059 134.268C112.075 134.268 113.675 135.596 113.675 137.324C113.675 138.38 113.067 139.276 112.171 139.756C113.211 140.268 113.899 141.308 113.899 142.46C113.899 144.284 112.187 145.692 110.059 145.692ZM117.735 139.532C116.199 139.532 115.047 138.396 115.047 136.892C115.047 135.404 116.199 134.268 117.735 134.268C119.255 134.268 120.407 135.404 120.407 136.892C120.407 138.396 119.255 139.532 117.735 139.532ZM116.215 145.5L124.215 134.46H126.135L118.135 145.5H116.215ZM117.735 138.092C118.391 138.092 118.903 137.564 118.903 136.892C118.903 136.22 118.391 135.724 117.735 135.724C117.063 135.724 116.551 136.22 116.551 136.892C116.551 137.564 117.063 138.092 117.735 138.092ZM124.599 145.692C123.079 145.692 121.927 144.556 121.927 143.052C121.927 141.548 123.079 140.428 124.599 140.428C126.119 140.428 127.271 141.548 127.271 143.052C127.271 144.556 126.119 145.692 124.599 145.692ZM124.599 144.236C125.271 144.236 125.783 143.724 125.783 143.052C125.783 142.38 125.271 141.868 124.599 141.868C123.927 141.868 123.431 142.38 123.431 143.052C123.431 143.724 123.927 144.236 124.599 144.236Z" fill="#30B67D"/>
<defs>
<linearGradient id="paint0_linear_142_320" x1="114" y1="108" x2="114" y2="255" gradientUnits="userSpaceOnUse">
<stop stop-color="#D7B8FF"/>
<stop offset="1" stop-color="#3A0085"/>
</linearGradient>
</defs>
</svg>
