<svg width="739" height="605" viewBox="0 0 739 605" fill="none" xmlns="http://www.w3.org/2000/svg">
<g filter="url(#filter0_bi_96_189)">
<g clip-path="url(#clip0_96_189)">
<rect y="4.5" width="600" height="600" rx="300" fill="#5E00D6" fill-opacity="0.5"/>
<path d="M506.091 299.53C506.091 283.018 504.177 266.561 500.388 250.49L396.38 275.01C398.274 283.045 399.231 291.274 399.231 299.53H506.091Z" fill="#7000FF"/>
<path d="M500.388 250.49C493.537 221.426 480.67 194.12 462.619 170.333C444.568 146.547 421.733 126.806 395.585 112.386C369.437 97.9646 340.558 89.1831 310.809 86.6071C281.059 84.0311 251.101 87.7177 222.863 97.4293L257.617 198.48C271.736 193.624 286.715 191.78 301.59 193.068C316.465 194.356 330.904 198.747 343.978 205.958C357.052 213.168 368.47 223.038 377.495 234.932C386.521 246.825 392.954 260.478 396.38 275.01L500.388 250.49Z" fill="#9747FF"/>
<path d="M222.863 97.429C181.511 111.651 145.516 138.216 119.737 173.539L206.054 236.534C218.944 218.873 236.941 205.59 257.617 198.479L222.863 97.429Z" fill="#C000E1"/>
<path d="M119.738 173.54C96.9372 204.782 83.0419 241.626 79.5336 280.145C76.0254 318.663 83.0359 357.412 99.8176 392.259L196.095 345.895C187.704 328.471 184.199 309.097 185.953 289.837C187.707 270.578 194.655 252.156 206.055 236.535L119.738 173.54Z" fill="#FF4E53"/>
<path d="M99.8174 392.259C113.163 419.972 132.334 444.477 156.019 464.101C179.704 483.725 207.347 498.006 237.057 505.967L264.715 402.748C249.859 398.768 236.038 391.628 224.195 381.815C212.353 372.003 202.768 359.751 196.095 345.894L99.8174 392.259Z" fill="#FF914B"/>
<path d="M237.056 505.967C287.614 519.514 341.386 514.037 388.175 490.574C434.963 467.11 471.514 427.293 490.897 378.672L391.634 339.101C381.942 363.411 363.667 383.32 340.273 395.052C316.879 406.783 289.993 409.522 264.714 402.749L237.056 505.967Z" fill="#30B67D"/>
<path d="M490.897 378.672C500.934 353.494 506.09 326.635 506.09 299.53H399.231C399.231 313.083 396.653 326.512 391.634 339.101L490.897 378.672Z" fill="#00DAE8"/>
<g filter="url(#filter1_b_96_189)">
<rect x="352.613" y="446.196" width="108.803" height="77.174" rx="38.587" fill="#28005C" fill-opacity="0.25"/>
<path d="M381.173 493.283V489.874L387.685 484.488C388.116 484.13 388.486 483.795 388.793 483.482C389.105 483.164 389.344 482.837 389.508 482.502C389.679 482.167 389.764 481.795 389.764 481.385C389.764 480.937 389.668 480.553 389.474 480.235C389.287 479.917 389.026 479.672 388.69 479.502C388.355 479.326 387.969 479.238 387.531 479.238C387.094 479.238 386.707 479.326 386.372 479.502C386.043 479.678 385.787 479.937 385.605 480.278C385.423 480.618 385.332 481.033 385.332 481.522H380.832C380.832 480.295 381.108 479.238 381.659 478.351C382.21 477.465 382.989 476.783 383.994 476.306C385 475.829 386.179 475.59 387.531 475.59C388.929 475.59 390.139 475.814 391.162 476.263C392.19 476.706 392.983 477.331 393.54 478.138C394.102 478.945 394.383 479.891 394.383 480.976C394.383 481.647 394.244 482.314 393.966 482.979C393.687 483.638 393.187 484.368 392.466 485.17C391.744 485.971 390.719 486.925 389.389 488.033L387.753 489.397V489.499H394.571V493.283H381.173ZM396.143 490.556V486.874L403.166 475.829H406.507V480.738H404.598L400.814 486.738V486.874H411.178V490.556H396.143ZM404.632 493.283V489.431L404.734 487.829V475.829H409.166V493.283H404.632ZM423.154 490.01V489.09C423.154 488.351 423.313 487.67 423.631 487.045C423.955 486.42 424.424 485.917 425.038 485.536C425.651 485.155 426.398 484.965 427.279 484.965C428.182 484.965 428.941 485.153 429.555 485.528C430.174 485.903 430.643 486.403 430.961 487.028C431.279 487.653 431.438 488.34 431.438 489.09V490.01C431.438 490.749 431.276 491.431 430.952 492.056C430.634 492.681 430.165 493.184 429.546 493.564C428.927 493.945 428.171 494.135 427.279 494.135C426.387 494.135 425.634 493.945 425.021 493.564C424.407 493.184 423.941 492.681 423.623 492.056C423.31 491.431 423.154 490.749 423.154 490.01ZM426.12 489.09V490.01C426.12 490.334 426.2 490.655 426.359 490.974C426.523 491.286 426.83 491.442 427.279 491.442C427.751 491.442 428.06 491.289 428.208 490.982C428.361 490.675 428.438 490.351 428.438 490.01V489.09C428.438 488.749 428.367 488.42 428.225 488.101C428.083 487.783 427.768 487.624 427.279 487.624C426.83 487.624 426.523 487.783 426.359 488.101C426.2 488.42 426.12 488.749 426.12 489.09ZM414.018 480.022V479.101C414.018 478.351 414.18 477.664 414.504 477.039C414.833 476.414 415.305 475.914 415.918 475.539C416.532 475.164 417.273 474.976 418.143 474.976C419.046 474.976 419.805 475.164 420.418 475.539C421.038 475.914 421.506 476.414 421.825 477.039C422.143 477.664 422.302 478.351 422.302 479.101V480.022C422.302 480.772 422.14 481.456 421.816 482.076C421.498 482.695 421.029 483.189 420.41 483.559C419.79 483.928 419.035 484.113 418.143 484.113C417.251 484.113 416.498 483.925 415.884 483.55C415.271 483.175 414.805 482.678 414.486 482.059C414.174 481.439 414.018 480.76 414.018 480.022ZM417.018 479.101V480.022C417.018 480.363 417.097 480.687 417.256 480.993C417.415 481.3 417.711 481.454 418.143 481.454C418.614 481.454 418.924 481.3 419.072 480.993C419.225 480.687 419.302 480.363 419.302 480.022V479.101C419.302 478.76 419.231 478.431 419.089 478.113C418.947 477.795 418.631 477.635 418.143 477.635C417.694 477.635 417.393 477.8 417.239 478.13C417.092 478.454 417.018 478.778 417.018 479.101ZM415.467 493.283L427.467 475.829H429.887L417.887 493.283H415.467Z" fill="#30B67D"/>
</g>
<g filter="url(#filter2_b_96_189)">
<rect x="452.022" y="326.302" width="63.8615" height="9.18993" rx="4.59497" transform="rotate(11.3609 452.022 326.302)" fill="#28005C" fill-opacity="0.25"/>
</g>
<g filter="url(#filter3_b_96_189)">
<rect x="450.983" y="275.802" width="66.9406" height="9.18993" rx="4.59497" transform="rotate(-6.86599 450.983 275.802)" fill="#28005C" fill-opacity="0.25"/>
</g>
<path d="M520.748 354.86L527.601 341.292V341.19H519.555V337.406H532.51V341.19L525.623 354.86H520.748ZM544.601 351.587V350.667C544.601 349.928 544.76 349.246 545.079 348.621C545.402 347.996 545.871 347.494 546.485 347.113C547.099 346.732 547.846 346.542 548.726 346.542C549.63 346.542 550.388 346.729 551.002 347.104C551.621 347.479 552.09 347.979 552.408 348.604C552.726 349.229 552.885 349.917 552.885 350.667V351.587C552.885 352.326 552.724 353.008 552.4 353.633C552.081 354.258 551.613 354.761 550.993 355.141C550.374 355.522 549.618 355.712 548.726 355.712C547.834 355.712 547.081 355.522 546.468 355.141C545.854 354.761 545.388 354.258 545.07 353.633C544.758 353.008 544.601 352.326 544.601 351.587ZM547.567 350.667V351.587C547.567 351.911 547.647 352.232 547.806 352.55C547.971 352.863 548.277 353.019 548.726 353.019C549.198 353.019 549.508 352.866 549.655 352.559C549.809 352.252 549.885 351.928 549.885 351.587V350.667C549.885 350.326 549.814 349.996 549.672 349.678C549.53 349.36 549.215 349.201 548.726 349.201C548.277 349.201 547.971 349.36 547.806 349.678C547.647 349.996 547.567 350.326 547.567 350.667ZM535.465 341.599V340.678C535.465 339.928 535.627 339.241 535.951 338.616C536.28 337.991 536.752 337.491 537.366 337.116C537.979 336.741 538.721 336.553 539.59 336.553C540.493 336.553 541.252 336.741 541.866 337.116C542.485 337.491 542.954 337.991 543.272 338.616C543.59 339.241 543.749 339.928 543.749 340.678V341.599C543.749 342.349 543.587 343.033 543.263 343.653C542.945 344.272 542.476 344.766 541.857 345.136C541.238 345.505 540.482 345.69 539.59 345.69C538.698 345.69 537.945 345.502 537.331 345.127C536.718 344.752 536.252 344.255 535.934 343.636C535.621 343.016 535.465 342.337 535.465 341.599ZM538.465 340.678V341.599C538.465 341.94 538.545 342.264 538.704 342.57C538.863 342.877 539.158 343.031 539.59 343.031C540.062 343.031 540.371 342.877 540.519 342.57C540.672 342.264 540.749 341.94 540.749 341.599V340.678C540.749 340.337 540.678 340.008 540.536 339.69C540.394 339.371 540.079 339.212 539.59 339.212C539.141 339.212 538.84 339.377 538.687 339.707C538.539 340.031 538.465 340.354 538.465 340.678ZM536.914 354.86L548.914 337.406H551.334L539.334 354.86H536.914Z" fill="#00DAE8"/>
<path d="M522.23 280.214V276.533L529.253 265.487H532.594V270.396H530.685L526.901 276.396V276.533H537.264V280.214H522.23ZM530.719 282.942V279.089L530.821 277.487V265.487H535.253V282.942H530.719ZM549.241 279.669V278.748C549.241 278.01 549.4 277.328 549.718 276.703C550.042 276.078 550.511 275.575 551.125 275.194C551.738 274.814 552.485 274.623 553.366 274.623C554.269 274.623 555.028 274.811 555.642 275.186C556.261 275.561 556.73 276.061 557.048 276.686C557.366 277.311 557.525 277.998 557.525 278.748V279.669C557.525 280.408 557.363 281.089 557.039 281.714C556.721 282.339 556.252 282.842 555.633 283.223C555.014 283.604 554.258 283.794 553.366 283.794C552.474 283.794 551.721 283.604 551.107 283.223C550.494 282.842 550.028 282.339 549.71 281.714C549.397 281.089 549.241 280.408 549.241 279.669ZM552.207 278.748V279.669C552.207 279.993 552.286 280.314 552.446 280.632C552.61 280.944 552.917 281.101 553.366 281.101C553.838 281.101 554.147 280.947 554.295 280.641C554.448 280.334 554.525 280.01 554.525 279.669V278.748C554.525 278.408 554.454 278.078 554.312 277.76C554.17 277.442 553.855 277.283 553.366 277.283C552.917 277.283 552.61 277.442 552.446 277.76C552.286 278.078 552.207 278.408 552.207 278.748ZM540.105 269.68V268.76C540.105 268.01 540.267 267.322 540.59 266.697C540.92 266.072 541.392 265.572 542.005 265.197C542.619 264.822 543.36 264.635 544.23 264.635C545.133 264.635 545.892 264.822 546.505 265.197C547.125 265.572 547.593 266.072 547.911 266.697C548.23 267.322 548.389 268.01 548.389 268.76V269.68C548.389 270.43 548.227 271.115 547.903 271.734C547.585 272.354 547.116 272.848 546.497 273.217C545.877 273.587 545.122 273.771 544.23 273.771C543.338 273.771 542.585 273.584 541.971 273.209C541.357 272.834 540.892 272.337 540.573 271.717C540.261 271.098 540.105 270.419 540.105 269.68ZM543.105 268.76V269.68C543.105 270.021 543.184 270.345 543.343 270.652C543.502 270.959 543.798 271.112 544.23 271.112C544.701 271.112 545.011 270.959 545.159 270.652C545.312 270.345 545.389 270.021 545.389 269.68V268.76C545.389 268.419 545.318 268.089 545.176 267.771C545.034 267.453 544.718 267.294 544.23 267.294C543.781 267.294 543.48 267.459 543.326 267.788C543.178 268.112 543.105 268.436 543.105 268.76ZM541.553 282.942L553.553 265.487H555.974L543.974 282.942H541.553Z" fill="#7000FF"/>
<g filter="url(#filter4_b_96_189)">
<rect x="366.529" y="85.6296" width="107.537" height="77.174" rx="38.587" fill="#28005C" fill-opacity="0.25"/>
<path d="M394.957 132.717V129.307L401.468 123.921C401.9 123.563 402.269 123.228 402.576 122.915C402.889 122.597 403.127 122.271 403.292 121.935C403.463 121.6 403.548 121.228 403.548 120.819C403.548 120.37 403.451 119.986 403.258 119.668C403.071 119.35 402.809 119.106 402.474 118.935C402.139 118.759 401.752 118.671 401.315 118.671C400.877 118.671 400.491 118.759 400.156 118.935C399.826 119.111 399.571 119.37 399.389 119.711C399.207 120.052 399.116 120.467 399.116 120.955H394.616C394.616 119.728 394.892 118.671 395.443 117.785C395.994 116.898 396.772 116.217 397.778 115.739C398.784 115.262 399.963 115.023 401.315 115.023C402.713 115.023 403.923 115.248 404.946 115.697C405.974 116.14 406.767 116.765 407.323 117.572C407.886 118.378 408.167 119.325 408.167 120.41C408.167 121.08 408.028 121.748 407.75 122.413C407.471 123.072 406.971 123.802 406.25 124.603C405.528 125.404 404.502 126.359 403.173 127.467L401.536 128.83V128.932H408.355V132.717H394.957ZM417.461 132.955C416.12 132.955 414.93 132.719 413.89 132.248C412.856 131.771 412.041 131.114 411.444 130.279C410.853 129.444 410.552 128.484 410.541 127.398H415.143C415.16 128.001 415.393 128.481 415.842 128.839C416.296 129.197 416.836 129.376 417.461 129.376C417.944 129.376 418.37 129.273 418.74 129.069C419.109 128.859 419.399 128.563 419.609 128.182C419.819 127.802 419.921 127.359 419.916 126.853C419.921 126.342 419.819 125.898 419.609 125.523C419.399 125.143 419.109 124.85 418.74 124.646C418.37 124.435 417.944 124.33 417.461 124.33C416.961 124.33 416.498 124.452 416.072 124.697C415.652 124.935 415.342 125.268 415.143 125.694L410.984 124.876L411.666 115.262H423.393V119.046H415.552L415.211 122.898H415.313C415.586 122.37 416.058 121.932 416.728 121.586C417.399 121.234 418.177 121.057 419.063 121.057C420.103 121.057 421.029 121.299 421.842 121.782C422.66 122.265 423.305 122.932 423.777 123.785C424.254 124.631 424.49 125.609 424.484 126.717C424.49 127.932 424.2 129.012 423.615 129.955C423.035 130.893 422.22 131.628 421.169 132.163C420.117 132.691 418.882 132.955 417.461 132.955ZM436.516 129.444V128.523C436.516 127.785 436.675 127.103 436.993 126.478C437.317 125.853 437.786 125.35 438.399 124.969C439.013 124.589 439.76 124.398 440.641 124.398C441.544 124.398 442.303 124.586 442.916 124.961C443.536 125.336 444.005 125.836 444.323 126.461C444.641 127.086 444.8 127.773 444.8 128.523V129.444C444.8 130.182 444.638 130.864 444.314 131.489C443.996 132.114 443.527 132.617 442.908 132.998C442.289 133.378 441.533 133.569 440.641 133.569C439.749 133.569 438.996 133.378 438.382 132.998C437.769 132.617 437.303 132.114 436.985 131.489C436.672 130.864 436.516 130.182 436.516 129.444ZM439.482 128.523V129.444C439.482 129.768 439.561 130.089 439.72 130.407C439.885 130.719 440.192 130.876 440.641 130.876C441.112 130.876 441.422 130.722 441.57 130.415C441.723 130.109 441.8 129.785 441.8 129.444V128.523C441.8 128.182 441.729 127.853 441.587 127.535C441.445 127.217 441.13 127.057 440.641 127.057C440.192 127.057 439.885 127.217 439.72 127.535C439.561 127.853 439.482 128.182 439.482 128.523ZM427.38 119.455V118.535C427.38 117.785 427.541 117.097 427.865 116.472C428.195 115.847 428.666 115.347 429.28 114.972C429.894 114.597 430.635 114.41 431.505 114.41C432.408 114.41 433.166 114.597 433.78 114.972C434.399 115.347 434.868 115.847 435.186 116.472C435.505 117.097 435.664 117.785 435.664 118.535V119.455C435.664 120.205 435.502 120.89 435.178 121.509C434.86 122.128 434.391 122.623 433.772 122.992C433.152 123.361 432.397 123.546 431.505 123.546C430.612 123.546 429.86 123.359 429.246 122.984C428.632 122.609 428.166 122.111 427.848 121.492C427.536 120.873 427.38 120.194 427.38 119.455ZM430.38 118.535V119.455C430.38 119.796 430.459 120.12 430.618 120.427C430.777 120.734 431.073 120.887 431.505 120.887C431.976 120.887 432.286 120.734 432.434 120.427C432.587 120.12 432.664 119.796 432.664 119.455V118.535C432.664 118.194 432.593 117.864 432.451 117.546C432.309 117.228 431.993 117.069 431.505 117.069C431.056 117.069 430.755 117.234 430.601 117.563C430.453 117.887 430.38 118.211 430.38 118.535ZM428.828 132.717L440.828 115.262H443.249L431.249 132.717H428.828Z" fill="#9747FF"/>
</g>
<g filter="url(#filter5_b_96_189)">
<rect x="102.114" y="89.425" width="88.5603" height="77.174" rx="38.587" fill="#28005C" fill-opacity="0.25"/>
<path d="M135.678 136.751C134.269 136.751 133.011 136.532 131.903 136.094C130.801 135.657 129.931 135.063 129.295 134.313C128.664 133.563 128.349 132.717 128.349 131.773C128.349 131.052 128.528 130.393 128.886 129.796C129.249 129.199 129.738 128.705 130.352 128.313C130.965 127.915 131.65 127.66 132.406 127.546V127.41C131.411 127.239 130.593 126.799 129.951 126.089C129.315 125.373 128.997 124.529 128.997 123.557C128.997 122.643 129.286 121.83 129.866 121.12C130.445 120.404 131.238 119.842 132.244 119.432C133.249 119.023 134.394 118.819 135.678 118.819C136.962 118.819 138.107 119.026 139.113 119.441C140.119 119.85 140.911 120.413 141.491 121.128C142.07 121.839 142.36 122.648 142.36 123.557C142.36 124.535 142.036 125.378 141.389 126.089C140.741 126.799 139.928 127.239 138.951 127.41V127.546C139.701 127.66 140.383 127.915 140.997 128.313C141.61 128.705 142.099 129.199 142.462 129.796C142.826 130.393 143.008 131.052 143.008 131.773C143.008 132.717 142.69 133.563 142.053 134.313C141.423 135.063 140.553 135.657 139.445 136.094C138.343 136.532 137.087 136.751 135.678 136.751ZM135.678 133.478C136.127 133.478 136.525 133.387 136.872 133.205C137.218 133.023 137.491 132.773 137.69 132.455C137.894 132.131 137.997 131.768 137.997 131.364C137.997 130.961 137.894 130.603 137.69 130.29C137.491 129.978 137.218 129.734 136.872 129.557C136.525 129.376 136.127 129.285 135.678 129.285C135.235 129.285 134.837 129.376 134.485 129.557C134.139 129.734 133.863 129.978 133.658 130.29C133.46 130.603 133.36 130.961 133.36 131.364C133.36 131.768 133.46 132.128 133.658 132.447C133.863 132.765 134.139 133.018 134.485 133.205C134.837 133.387 135.235 133.478 135.678 133.478ZM135.678 126.012C136.076 126.012 136.428 125.93 136.735 125.765C137.042 125.6 137.283 125.373 137.46 125.083C137.636 124.793 137.724 124.467 137.724 124.103C137.724 123.739 137.636 123.418 137.46 123.14C137.283 122.856 137.042 122.634 136.735 122.475C136.428 122.31 136.076 122.228 135.678 122.228C135.286 122.228 134.934 122.31 134.622 122.475C134.315 122.634 134.073 122.856 133.897 123.14C133.721 123.418 133.633 123.739 133.633 124.103C133.633 124.467 133.721 124.793 133.897 125.083C134.073 125.367 134.315 125.594 134.622 125.765C134.934 125.93 135.286 126.012 135.678 126.012ZM155.112 133.239V132.319C155.112 131.58 155.271 130.898 155.59 130.273C155.913 129.648 156.382 129.145 156.996 128.765C157.609 128.384 158.357 128.194 159.237 128.194C160.141 128.194 160.899 128.381 161.513 128.756C162.132 129.131 162.601 129.631 162.919 130.256C163.237 130.881 163.396 131.569 163.396 132.319V133.239C163.396 133.978 163.234 134.66 162.911 135.285C162.592 135.91 162.124 136.413 161.504 136.793C160.885 137.174 160.129 137.364 159.237 137.364C158.345 137.364 157.592 137.174 156.979 136.793C156.365 136.413 155.899 135.91 155.581 135.285C155.269 134.66 155.112 133.978 155.112 133.239ZM158.078 132.319V133.239C158.078 133.563 158.158 133.884 158.317 134.202C158.482 134.515 158.788 134.671 159.237 134.671C159.709 134.671 160.019 134.518 160.166 134.211C160.32 133.904 160.396 133.58 160.396 133.239V132.319C160.396 131.978 160.325 131.648 160.183 131.33C160.041 131.012 159.726 130.853 159.237 130.853C158.788 130.853 158.482 131.012 158.317 131.33C158.158 131.648 158.078 131.978 158.078 132.319ZM145.976 123.251V122.33C145.976 121.58 146.138 120.893 146.462 120.268C146.791 119.643 147.263 119.143 147.877 118.768C148.49 118.393 149.232 118.205 150.101 118.205C151.004 118.205 151.763 118.393 152.377 118.768C152.996 119.143 153.465 119.643 153.783 120.268C154.101 120.893 154.26 121.58 154.26 122.33V123.251C154.26 124.001 154.098 124.685 153.774 125.305C153.456 125.924 152.987 126.418 152.368 126.788C151.749 127.157 150.993 127.342 150.101 127.342C149.209 127.342 148.456 127.154 147.842 126.779C147.229 126.404 146.763 125.907 146.445 125.288C146.132 124.668 145.976 123.989 145.976 123.251ZM148.976 122.33V123.251C148.976 123.592 149.056 123.915 149.215 124.222C149.374 124.529 149.669 124.682 150.101 124.682C150.573 124.682 150.882 124.529 151.03 124.222C151.183 123.915 151.26 123.592 151.26 123.251V122.33C151.26 121.989 151.189 121.66 151.047 121.342C150.905 121.023 150.59 120.864 150.101 120.864C149.652 120.864 149.351 121.029 149.198 121.359C149.05 121.682 148.976 122.006 148.976 122.33ZM147.425 136.512L159.425 119.057H161.845L149.845 136.512H147.425Z" fill="#C000E1"/>
</g>
<g filter="url(#filter6_b_96_189)">
<rect x="30" y="237.447" width="103.742" height="77.174" rx="38.587" fill="#28005C" fill-opacity="0.25"/>
<path d="M66.587 267.079V284.534H61.8484V271.443H61.7461L57.9279 273.727V269.704L62.2234 267.079H66.587ZM76.989 266.841C78.006 266.841 78.9691 267.003 79.8782 267.327C80.7873 267.645 81.5913 268.148 82.2901 268.835C82.9947 269.523 83.5458 270.42 83.9435 271.528C84.3469 272.631 84.5515 273.966 84.5572 275.534C84.5629 276.966 84.3839 278.253 84.0202 279.395C83.6623 280.531 83.1481 281.5 82.4776 282.301C81.8129 283.102 81.0117 283.716 80.0742 284.142C79.1424 284.562 78.1026 284.773 76.9549 284.773C75.6651 284.773 74.5316 284.525 73.5543 284.031C72.5771 283.537 71.7987 282.872 71.2191 282.037C70.6396 281.202 70.3015 280.273 70.2049 279.25H74.8754C74.989 279.778 75.239 280.162 75.6254 280.4C76.0117 280.633 76.4549 280.75 76.9549 280.75C77.9549 280.75 78.685 280.318 79.1452 279.454C79.6112 278.585 79.8469 277.426 79.8526 275.977H79.7504C79.5288 276.511 79.1935 276.969 78.7447 277.349C78.2958 277.73 77.7731 278.023 77.1765 278.227C76.5799 278.432 75.9492 278.534 75.2844 278.534C74.2333 278.534 73.3129 278.298 72.5231 277.827C71.7333 277.349 71.1168 276.699 70.6737 275.875C70.2305 275.045 70.006 274.102 70.0004 273.045C69.9947 271.807 70.2873 270.721 70.8782 269.79C71.4691 268.858 72.2901 268.133 73.3413 267.616C74.3924 267.099 75.6083 266.841 76.989 266.841ZM77.0231 270.42C76.5515 270.42 76.131 270.528 75.7617 270.744C75.3981 270.96 75.1112 271.253 74.9009 271.622C74.6964 271.991 74.5969 272.409 74.6026 272.875C74.6083 273.341 74.7134 273.758 74.918 274.128C75.1282 274.497 75.4123 274.79 75.7702 275.006C76.1339 275.221 76.5515 275.329 77.0231 275.329C77.3697 275.329 77.6907 275.27 77.9862 275.15C78.2816 275.025 78.5373 274.852 78.7532 274.631C78.9748 274.403 79.1452 274.142 79.2646 273.846C79.3896 273.545 79.4492 273.221 79.4435 272.875C79.4379 272.409 79.3299 271.991 79.1197 271.622C78.9094 271.253 78.6225 270.96 78.2589 270.744C77.8952 270.528 77.4833 270.42 77.0231 270.42ZM96.5891 281.261V280.341C96.5891 279.602 96.7482 278.92 97.0664 278.295C97.3903 277.67 97.859 277.167 98.4727 276.787C99.0863 276.406 99.8335 276.216 100.714 276.216C101.618 276.216 102.376 276.403 102.99 276.778C103.609 277.153 104.078 277.653 104.396 278.278C104.714 278.903 104.873 279.591 104.873 280.341V281.261C104.873 282 104.711 282.682 104.387 283.307C104.069 283.932 103.6 284.435 102.981 284.815C102.362 285.196 101.606 285.386 100.714 285.386C99.8221 285.386 99.0692 285.196 98.4556 284.815C97.842 284.435 97.3761 283.932 97.0579 283.307C96.7454 282.682 96.5891 282 96.5891 281.261ZM99.555 280.341V281.261C99.555 281.585 99.6346 281.906 99.7937 282.224C99.9585 282.537 100.265 282.693 100.714 282.693C101.186 282.693 101.495 282.54 101.643 282.233C101.797 281.926 101.873 281.602 101.873 281.261V280.341C101.873 280 101.802 279.67 101.66 279.352C101.518 279.034 101.203 278.875 100.714 278.875C100.265 278.875 99.9585 279.034 99.7937 279.352C99.6346 279.67 99.555 280 99.555 280.341ZM87.4528 271.273V270.352C87.4528 269.602 87.6147 268.915 87.9386 268.29C88.2681 267.665 88.7397 267.165 89.3533 266.79C89.967 266.415 90.7085 266.227 91.5778 266.227C92.4812 266.227 93.2397 266.415 93.8533 266.79C94.4727 267.165 94.9414 267.665 95.2596 268.29C95.5778 268.915 95.7369 269.602 95.7369 270.352V271.273C95.7369 272.023 95.5749 272.707 95.2511 273.327C94.9329 273.946 94.4641 274.44 93.8448 274.81C93.2255 275.179 92.4698 275.363 91.5778 275.363C90.6857 275.363 89.9329 275.176 89.3192 274.801C88.7056 274.426 88.2397 273.929 87.9215 273.31C87.609 272.69 87.4528 272.011 87.4528 271.273ZM90.4528 270.352V271.273C90.4528 271.613 90.5323 271.937 90.6914 272.244C90.8505 272.551 91.146 272.704 91.5778 272.704C92.0494 272.704 92.359 272.551 92.5067 272.244C92.6602 271.937 92.7369 271.613 92.7369 271.273V270.352C92.7369 270.011 92.6658 269.682 92.5238 269.363C92.3817 269.045 92.0664 268.886 91.5778 268.886C91.1289 268.886 90.8278 269.051 90.6744 269.381C90.5266 269.704 90.4528 270.028 90.4528 270.352ZM88.9016 284.534L100.902 267.079H103.322L91.3221 284.534H88.9016Z" fill="#FF4E53"/>
</g>
<g filter="url(#filter7_b_96_189)">
<rect x="102.114" y="425.954" width="103.742" height="77.174" rx="38.587" fill="#28005C" fill-opacity="0.25"/>
<path d="M138.701 455.587V473.041H133.963V459.95H133.86L130.042 462.234V458.212L134.338 455.587H138.701ZM142.285 473.041V469.632L148.796 464.246C149.228 463.888 149.598 463.553 149.904 463.24C150.217 462.922 150.456 462.595 150.62 462.26C150.791 461.925 150.876 461.553 150.876 461.144C150.876 460.695 150.779 460.311 150.586 459.993C150.399 459.675 150.137 459.43 149.802 459.26C149.467 459.084 149.081 458.996 148.643 458.996C148.206 458.996 147.819 459.084 147.484 459.26C147.154 459.436 146.899 459.695 146.717 460.036C146.535 460.376 146.444 460.791 146.444 461.28H141.944C141.944 460.053 142.22 458.996 142.771 458.109C143.322 457.223 144.1 456.541 145.106 456.064C146.112 455.587 147.291 455.348 148.643 455.348C150.041 455.348 151.251 455.573 152.274 456.021C153.302 456.465 154.095 457.09 154.652 457.896C155.214 458.703 155.495 459.649 155.495 460.734C155.495 461.405 155.356 462.073 155.078 462.737C154.799 463.396 154.299 464.126 153.578 464.928C152.856 465.729 151.831 466.683 150.501 467.791L148.865 469.155V469.257H155.683V473.041H142.285ZM167.789 469.769V468.848C167.789 468.109 167.948 467.428 168.267 466.803C168.59 466.178 169.059 465.675 169.673 465.294C170.286 464.913 171.034 464.723 171.914 464.723C172.818 464.723 173.576 464.911 174.19 465.286C174.809 465.661 175.278 466.161 175.596 466.786C175.914 467.411 176.073 468.098 176.073 468.848V469.769C176.073 470.507 175.911 471.189 175.588 471.814C175.269 472.439 174.801 472.942 174.181 473.323C173.562 473.703 172.806 473.894 171.914 473.894C171.022 473.894 170.269 473.703 169.656 473.323C169.042 472.942 168.576 472.439 168.258 471.814C167.946 471.189 167.789 470.507 167.789 469.769ZM170.755 468.848V469.769C170.755 470.092 170.835 470.413 170.994 470.732C171.159 471.044 171.465 471.2 171.914 471.2C172.386 471.2 172.696 471.047 172.843 470.74C172.997 470.433 173.073 470.109 173.073 469.769V468.848C173.073 468.507 173.002 468.178 172.86 467.859C172.718 467.541 172.403 467.382 171.914 467.382C171.465 467.382 171.159 467.541 170.994 467.859C170.835 468.178 170.755 468.507 170.755 468.848ZM158.653 459.78V458.859C158.653 458.109 158.815 457.422 159.139 456.797C159.468 456.172 159.94 455.672 160.554 455.297C161.167 454.922 161.909 454.734 162.778 454.734C163.681 454.734 164.44 454.922 165.054 455.297C165.673 455.672 166.142 456.172 166.46 456.797C166.778 457.422 166.937 458.109 166.937 458.859V459.78C166.937 460.53 166.775 461.215 166.451 461.834C166.133 462.453 165.664 462.948 165.045 463.317C164.426 463.686 163.67 463.871 162.778 463.871C161.886 463.871 161.133 463.683 160.519 463.308C159.906 462.933 159.44 462.436 159.122 461.817C158.809 461.198 158.653 460.519 158.653 459.78ZM161.653 458.859V459.78C161.653 460.121 161.733 460.445 161.892 460.751C162.051 461.058 162.346 461.212 162.778 461.212C163.25 461.212 163.559 461.058 163.707 460.751C163.86 460.445 163.937 460.121 163.937 459.78V458.859C163.937 458.519 163.866 458.189 163.724 457.871C163.582 457.553 163.267 457.394 162.778 457.394C162.329 457.394 162.028 457.558 161.875 457.888C161.727 458.212 161.653 458.536 161.653 458.859ZM160.102 473.041L172.102 455.587H174.522L162.522 473.041H160.102Z" fill="#FF914B"/>
</g>
</g>
</g>
<g filter="url(#filter8_bi_96_189)">
<rect x="507" width="232" height="216" rx="40" fill="#D7B8FF" fill-opacity="0.1"/>
<circle cx="551.5" cy="36" r="4" fill="#9747FF"/>
<path d="M566.644 40V32.764H563.896V31.6H570.724V32.764H567.964V40H566.644ZM571.408 40V33.808H572.632V35.248C572.836 34.336 573.424 33.736 574.48 33.736C574.672 33.736 574.852 33.748 574.972 33.784V34.972C574.84 34.948 574.732 34.948 574.576 34.948C573.436 34.948 572.692 35.74 572.692 37.144V40H571.408ZM575.715 38.2C575.715 37.024 576.531 36.364 578.043 36.256L579.783 36.136V35.908C579.783 35.128 579.363 34.648 578.523 34.648C577.755 34.648 577.287 35.08 577.191 35.644H575.943C576.135 34.468 577.095 33.664 578.511 33.664C580.179 33.664 581.067 34.576 581.067 35.956V40H579.819V39.076C579.579 39.664 578.883 40.144 577.899 40.144C576.567 40.144 575.715 39.364 575.715 38.2ZM576.963 38.164C576.963 38.8 577.383 39.232 578.187 39.232C579.123 39.232 579.783 38.608 579.783 37.528V37.012L578.379 37.108C577.479 37.168 576.963 37.492 576.963 38.164ZM585.126 40.144C583.59 40.144 582.57 39.34 582.354 38.02H583.554C583.698 38.716 584.202 39.208 585.126 39.208C585.966 39.208 586.47 38.8 586.47 38.212C586.47 37.768 586.17 37.492 585.462 37.372L584.19 37.156C583.062 36.964 582.486 36.46 582.486 35.536C582.486 34.408 583.482 33.664 584.934 33.664C586.41 33.664 587.346 34.408 587.454 35.608H586.254C586.158 35.044 585.75 34.6 584.934 34.6C584.166 34.6 583.662 34.9 583.662 35.428C583.662 35.836 583.902 35.992 584.538 36.1L585.834 36.316C587.046 36.52 587.658 37.072 587.658 38.104C587.658 39.352 586.542 40.144 585.126 40.144ZM588.986 33.808H590.234V34.9C590.534 34.204 591.302 33.664 592.298 33.664C593.942 33.664 595.13 35.104 595.13 36.904C595.13 38.704 593.942 40.144 592.298 40.144C591.314 40.144 590.558 39.604 590.27 38.908V42.208H588.986V33.808ZM590.27 36.904C590.27 38.08 591.014 39.052 592.082 39.052C593.15 39.052 593.834 38.044 593.834 36.904C593.834 35.764 593.15 34.756 592.082 34.756C591.014 34.756 590.27 35.728 590.27 36.904ZM599.15 40.144C597.35 40.144 596.066 38.692 596.066 36.904C596.066 35.116 597.35 33.664 599.15 33.664C600.95 33.664 602.234 35.116 602.234 36.904C602.234 38.692 600.95 40.144 599.15 40.144ZM599.15 39.052C600.278 39.052 600.95 37.996 600.95 36.904C600.95 35.812 600.278 34.744 599.15 34.744C598.022 34.744 597.35 35.812 597.35 36.904C597.35 37.996 598.022 39.052 599.15 39.052ZM603.599 40V33.808H604.823V35.248C605.027 34.336 605.615 33.736 606.671 33.736C606.863 33.736 607.043 33.748 607.163 33.784V34.972C607.031 34.948 606.923 34.948 606.767 34.948C605.627 34.948 604.883 35.74 604.883 37.144V40H603.599ZM610.649 40.072C609.389 40.072 608.753 39.376 608.753 38.02V34.864H607.661V33.808H608.753V32.164H610.037V33.808H611.693V34.864H610.037V38.02C610.037 38.644 610.337 38.98 610.961 38.98C611.261 38.98 611.525 38.92 611.705 38.872V39.928C611.489 40.024 611.069 40.072 610.649 40.072ZM613.022 32.812V31.396H614.354V32.812H613.022ZM613.046 40V33.808H614.33V40H613.046Z" fill="#F2F2F2"/>
<circle cx="551.5" cy="60" r="4" fill="#30B67D"/>
<path d="M564.532 64V55.6H565.852V64H564.532ZM567.798 64V57.808H569.034V58.804C569.31 58.108 569.946 57.664 570.894 57.664C572.358 57.664 573.138 58.684 573.138 60.22V64H571.854V60.388C571.854 59.44 571.446 58.792 570.558 58.792C569.67 58.792 569.082 59.392 569.082 60.412V64H567.798ZM580.589 64H579.341V62.908C579.041 63.604 578.273 64.144 577.277 64.144C575.633 64.144 574.445 62.704 574.445 60.904C574.445 59.104 575.633 57.664 577.277 57.664C578.261 57.664 579.017 58.204 579.305 58.9V55.24H580.589V64ZM579.305 60.904C579.305 59.728 578.561 58.756 577.493 58.756C576.425 58.756 575.741 59.764 575.741 60.904C575.741 62.044 576.425 63.052 577.493 63.052C578.561 63.052 579.305 62.08 579.305 60.904ZM582.328 61.588V57.808H583.612V61.444C583.612 62.392 584.008 63.04 584.896 63.04C585.784 63.04 586.336 62.428 586.336 61.42V57.808H587.632V64H586.396V63.016C586.132 63.676 585.508 64.144 584.548 64.144C583.096 64.144 582.328 63.124 582.328 61.588ZM591.736 64.144C590.2 64.144 589.18 63.34 588.964 62.02H590.164C590.308 62.716 590.812 63.208 591.736 63.208C592.576 63.208 593.08 62.8 593.08 62.212C593.08 61.768 592.78 61.492 592.072 61.372L590.8 61.156C589.672 60.964 589.096 60.46 589.096 59.536C589.096 58.408 590.092 57.664 591.544 57.664C593.02 57.664 593.956 58.408 594.064 59.608H592.864C592.768 59.044 592.36 58.6 591.544 58.6C590.776 58.6 590.272 58.9 590.272 59.428C590.272 59.836 590.512 59.992 591.148 60.1L592.444 60.316C593.656 60.52 594.268 61.072 594.268 62.104C594.268 63.352 593.152 64.144 591.736 64.144ZM597.806 64.072C596.546 64.072 595.91 63.376 595.91 62.02V58.864H594.818V57.808H595.91V56.164H597.194V57.808H598.85V58.864H597.194V62.02C597.194 62.644 597.494 62.98 598.118 62.98C598.418 62.98 598.682 62.92 598.862 62.872V63.928C598.646 64.024 598.226 64.072 597.806 64.072ZM600.142 64V57.808H601.366V59.248C601.57 58.336 602.158 57.736 603.214 57.736C603.406 57.736 603.586 57.748 603.706 57.784V58.972C603.574 58.948 603.466 58.948 603.31 58.948C602.17 58.948 601.426 59.74 601.426 61.144V64H600.142ZM604.913 56.812V55.396H606.245V56.812H604.913ZM604.937 64V57.808H606.221V64H604.937ZM607.644 60.904C607.644 59.068 608.892 57.664 610.632 57.664C612.552 57.664 613.524 59.056 613.524 60.784V61.192H608.892C608.952 62.272 609.576 63.136 610.692 63.136C611.532 63.136 612 62.716 612.228 62.164H613.428C613.116 63.34 612.072 64.144 610.692 64.144C608.76 64.144 607.644 62.704 607.644 60.904ZM608.928 60.244H612.312C612.204 59.296 611.604 58.612 610.62 58.612C609.66 58.612 609.072 59.332 608.928 60.244ZM617.101 60.904C617.101 59.068 618.349 57.664 620.089 57.664C622.009 57.664 622.981 59.056 622.981 60.784V61.192H618.349C618.409 62.272 619.033 63.136 620.149 63.136C620.989 63.136 621.457 62.716 621.685 62.164H622.885C622.573 63.34 621.529 64.144 620.149 64.144C618.217 64.144 617.101 62.704 617.101 60.904ZM618.385 60.244H621.769C621.661 59.296 621.061 58.612 620.077 58.612C619.117 58.612 618.529 59.332 618.385 60.244ZM624.388 64V57.808H625.624V58.804C625.9 58.108 626.536 57.664 627.484 57.664C628.948 57.664 629.728 58.684 629.728 60.22V64H628.444V60.388C628.444 59.44 628.036 58.792 627.148 58.792C626.26 58.792 625.672 59.392 625.672 60.412V64H624.388ZM631.034 60.904C631.034 59.068 632.282 57.664 634.022 57.664C635.942 57.664 636.914 59.056 636.914 60.784V61.192H632.282C632.342 62.272 632.966 63.136 634.082 63.136C634.922 63.136 635.39 62.716 635.618 62.164H636.818C636.506 63.34 635.462 64.144 634.082 64.144C632.15 64.144 631.034 62.704 631.034 60.904ZM632.318 60.244H635.702C635.594 59.296 634.994 58.612 634.01 58.612C633.05 58.612 632.462 59.332 632.318 60.244ZM638.322 64V57.808H639.546V59.248C639.75 58.336 640.338 57.736 641.394 57.736C641.586 57.736 641.766 57.748 641.886 57.784V58.972C641.754 58.948 641.646 58.948 641.49 58.948C640.35 58.948 639.606 59.74 639.606 61.144V64H638.322ZM642.484 60.7C642.484 58.96 643.624 57.664 645.256 57.664C646.228 57.664 646.96 58.18 647.224 58.84V57.808H648.484V63.7C648.484 65.38 647.344 66.352 645.58 66.352C644.032 66.352 642.916 65.536 642.628 64.264H643.948C644.152 64.912 644.728 65.356 645.568 65.356C646.744 65.356 647.2 64.696 647.2 63.484V62.536C646.972 63.184 646.228 63.748 645.256 63.748C643.624 63.748 642.484 62.44 642.484 60.7ZM643.756 60.7C643.756 61.84 644.44 62.716 645.508 62.716C646.504 62.716 647.2 61.912 647.2 60.7C647.2 59.5 646.468 58.684 645.508 58.684C644.428 58.684 643.756 59.56 643.756 60.7ZM649.855 60.904C649.855 59.068 651.103 57.664 652.843 57.664C654.763 57.664 655.735 59.056 655.735 60.784V61.192H651.103C651.163 62.272 651.787 63.136 652.903 63.136C653.743 63.136 654.211 62.716 654.439 62.164H655.639C655.327 63.34 654.283 64.144 652.903 64.144C650.971 64.144 649.855 62.704 649.855 60.904ZM651.139 60.244H654.523C654.415 59.296 653.815 58.612 652.831 58.612C651.871 58.612 651.283 59.332 651.139 60.244ZM659.411 64.072C658.151 64.072 657.515 63.376 657.515 62.02V58.864H656.423V57.808H657.515V56.164H658.799V57.808H660.455V58.864H658.799V62.02C658.799 62.644 659.099 62.98 659.723 62.98C660.023 62.98 660.287 62.92 660.467 62.872V63.928C660.251 64.024 659.831 64.072 659.411 64.072ZM661.784 56.812V55.396H663.116V56.812H661.784ZM661.808 64V57.808H663.092V64H661.808ZM664.515 60.904C664.515 59.176 665.727 57.664 667.587 57.664C669.171 57.664 670.179 58.636 670.407 59.932H669.159C668.943 59.26 668.439 58.756 667.587 58.756C666.471 58.756 665.811 59.788 665.811 60.904C665.811 62.02 666.471 63.04 667.587 63.04C668.439 63.04 668.943 62.548 669.159 61.876H670.407C670.179 63.172 669.171 64.144 667.587 64.144C665.727 64.144 664.515 62.632 664.515 60.904ZM671.779 64V55.24H673.063V58.792C673.327 58.084 673.987 57.664 674.875 57.664C676.327 57.664 677.119 58.672 677.119 60.196V64H675.835V60.364C675.835 59.428 675.415 58.792 674.539 58.792C673.651 58.792 673.063 59.38 673.063 60.412V64H671.779ZM678.425 60.904C678.425 59.068 679.673 57.664 681.413 57.664C683.333 57.664 684.305 59.056 684.305 60.784V61.192H679.673C679.733 62.272 680.357 63.136 681.473 63.136C682.313 63.136 682.781 62.716 683.009 62.164H684.209C683.897 63.34 682.853 64.144 681.473 64.144C679.541 64.144 678.425 62.704 678.425 60.904ZM679.709 60.244H683.093C682.985 59.296 682.385 58.612 681.401 58.612C680.441 58.612 679.853 59.332 679.709 60.244Z" fill="#F2F2F2"/>
<circle cx="551.5" cy="84" r="4" fill="#FF914B"/>
<path d="M564.532 88V79.6H565.852V88H564.532ZM567.798 88V81.808H569.034V82.804C569.31 82.108 569.946 81.664 570.894 81.664C572.358 81.664 573.138 82.684 573.138 84.22V88H571.854V84.388C571.854 83.44 571.446 82.792 570.558 82.792C569.67 82.792 569.082 83.392 569.082 84.412V88H567.798ZM580.589 88H579.341V86.908C579.041 87.604 578.273 88.144 577.277 88.144C575.633 88.144 574.445 86.704 574.445 84.904C574.445 83.104 575.633 81.664 577.277 81.664C578.261 81.664 579.017 82.204 579.305 82.9V79.24H580.589V88ZM579.305 84.904C579.305 83.728 578.561 82.756 577.493 82.756C576.425 82.756 575.741 83.764 575.741 84.904C575.741 86.044 576.425 87.052 577.493 87.052C578.561 87.052 579.305 86.08 579.305 84.904ZM582.328 85.588V81.808H583.612V85.444C583.612 86.392 584.008 87.04 584.896 87.04C585.784 87.04 586.336 86.428 586.336 85.42V81.808H587.632V88H586.396V87.016C586.132 87.676 585.508 88.144 584.548 88.144C583.096 88.144 582.328 87.124 582.328 85.588ZM591.736 88.144C590.2 88.144 589.18 87.34 588.964 86.02H590.164C590.308 86.716 590.812 87.208 591.736 87.208C592.576 87.208 593.08 86.8 593.08 86.212C593.08 85.768 592.78 85.492 592.072 85.372L590.8 85.156C589.672 84.964 589.096 84.46 589.096 83.536C589.096 82.408 590.092 81.664 591.544 81.664C593.02 81.664 593.956 82.408 594.064 83.608H592.864C592.768 83.044 592.36 82.6 591.544 82.6C590.776 82.6 590.272 82.9 590.272 83.428C590.272 83.836 590.512 83.992 591.148 84.1L592.444 84.316C593.656 84.52 594.268 85.072 594.268 86.104C594.268 87.352 593.152 88.144 591.736 88.144ZM597.806 88.072C596.546 88.072 595.91 87.376 595.91 86.02V82.864H594.818V81.808H595.91V80.164H597.194V81.808H598.85V82.864H597.194V86.02C597.194 86.644 597.494 86.98 598.118 86.98C598.418 86.98 598.682 86.92 598.862 86.872V87.928C598.646 88.024 598.226 88.072 597.806 88.072ZM600.142 88V81.808H601.366V83.248C601.57 82.336 602.158 81.736 603.214 81.736C603.406 81.736 603.586 81.748 603.706 81.784V82.972C603.574 82.948 603.466 82.948 603.31 82.948C602.17 82.948 601.426 83.74 601.426 85.144V88H600.142ZM604.913 80.812V79.396H606.245V80.812H604.913ZM604.937 88V81.808H606.221V88H604.937ZM607.644 84.904C607.644 83.068 608.892 81.664 610.632 81.664C612.552 81.664 613.524 83.056 613.524 84.784V85.192H608.892C608.952 86.272 609.576 87.136 610.692 87.136C611.532 87.136 612 86.716 612.228 86.164H613.428C613.116 87.34 612.072 88.144 610.692 88.144C608.76 88.144 607.644 86.704 607.644 84.904ZM608.928 84.244H612.312C612.204 83.296 611.604 82.612 610.62 82.612C609.66 82.612 609.072 83.332 608.928 84.244ZM617.533 88V81.808H618.769V82.828C619.045 82.12 619.657 81.664 620.569 81.664C621.529 81.664 622.153 82.096 622.489 82.78C622.861 82.108 623.521 81.664 624.493 81.664C625.969 81.664 626.713 82.648 626.713 84.148V88H625.429V84.352C625.429 83.404 625.021 82.792 624.145 82.792C623.293 82.792 622.765 83.368 622.765 84.4V88H621.481V84.352C621.481 83.404 621.073 82.792 620.209 82.792C619.357 82.792 618.817 83.368 618.817 84.4V88H617.533ZM628.25 86.2C628.25 85.024 629.066 84.364 630.578 84.256L632.318 84.136V83.908C632.318 83.128 631.898 82.648 631.058 82.648C630.29 82.648 629.822 83.08 629.726 83.644H628.478C628.67 82.468 629.63 81.664 631.046 81.664C632.714 81.664 633.602 82.576 633.602 83.956V88H632.354V87.076C632.114 87.664 631.418 88.144 630.434 88.144C629.102 88.144 628.25 87.364 628.25 86.2ZM629.498 86.164C629.498 86.8 629.918 87.232 630.722 87.232C631.658 87.232 632.318 86.608 632.318 85.528V85.012L630.914 85.108C630.014 85.168 629.498 85.492 629.498 86.164ZM635.345 88V81.808H636.581V82.804C636.857 82.108 637.493 81.664 638.441 81.664C639.905 81.664 640.685 82.684 640.685 84.22V88H639.401V84.388C639.401 83.44 638.993 82.792 638.105 82.792C637.217 82.792 636.629 83.392 636.629 84.412V88H635.345ZM642.459 80.812V79.396H643.791V80.812H642.459ZM642.483 88V81.808H643.767V88H642.483ZM646.043 88V82.864H645.047V81.808H646.043V81.316C646.043 79.9 646.691 79.096 648.167 79.096C648.491 79.096 648.791 79.12 648.947 79.168V80.176C648.827 80.14 648.635 80.128 648.407 80.128C647.687 80.128 647.327 80.524 647.327 81.268V81.808H648.851V82.864H647.327V88H646.043ZM649.485 86.2C649.485 85.024 650.301 84.364 651.813 84.256L653.553 84.136V83.908C653.553 83.128 653.133 82.648 652.293 82.648C651.525 82.648 651.057 83.08 650.961 83.644H649.713C649.905 82.468 650.865 81.664 652.281 81.664C653.949 81.664 654.837 82.576 654.837 83.956V88H653.589V87.076C653.349 87.664 652.653 88.144 651.669 88.144C650.337 88.144 649.485 87.364 649.485 86.2ZM650.733 86.164C650.733 86.8 651.153 87.232 651.957 87.232C652.893 87.232 653.553 86.608 653.553 85.528V85.012L652.149 85.108C651.249 85.168 650.733 85.492 650.733 86.164ZM658.825 88.072C657.565 88.072 656.929 87.376 656.929 86.02V82.864H655.837V81.808H656.929V80.164H658.213V81.808H659.869V82.864H658.213V86.02C658.213 86.644 658.513 86.98 659.137 86.98C659.437 86.98 659.701 86.92 659.881 86.872V87.928C659.665 88.024 659.245 88.072 658.825 88.072ZM663.431 88.072C662.171 88.072 661.535 87.376 661.535 86.02V82.864H660.443V81.808H661.535V80.164H662.819V81.808H664.475V82.864H662.819V86.02C662.819 86.644 663.119 86.98 663.743 86.98C664.043 86.98 664.307 86.92 664.487 86.872V87.928C664.271 88.024 663.851 88.072 663.431 88.072ZM665.707 85.588V81.808H666.991V85.444C666.991 86.392 667.387 87.04 668.275 87.04C669.163 87.04 669.715 86.428 669.715 85.42V81.808H671.011V88H669.775V87.016C669.511 87.676 668.887 88.144 667.927 88.144C666.475 88.144 665.707 87.124 665.707 85.588ZM672.798 88V81.808H674.022V83.248C674.226 82.336 674.814 81.736 675.87 81.736C676.062 81.736 676.242 81.748 676.362 81.784V82.972C676.23 82.948 676.122 82.948 675.966 82.948C674.826 82.948 674.082 83.74 674.082 85.144V88H672.798ZM677.569 80.812V79.396H678.901V80.812H677.569ZM677.593 88V81.808H678.877V88H677.593ZM680.3 84.904C680.3 83.068 681.548 81.664 683.288 81.664C685.208 81.664 686.18 83.056 686.18 84.784V85.192H681.548C681.608 86.272 682.232 87.136 683.348 87.136C684.188 87.136 684.656 86.716 684.884 86.164H686.084C685.772 87.34 684.728 88.144 683.348 88.144C681.416 88.144 680.3 86.704 680.3 84.904ZM681.584 84.244H684.968C684.86 83.296 684.26 82.612 683.276 82.612C682.316 82.612 681.728 83.332 681.584 84.244ZM687.588 88V81.808H688.812V83.248C689.016 82.336 689.604 81.736 690.66 81.736C690.852 81.736 691.032 81.748 691.152 81.784V82.972C691.02 82.948 690.912 82.948 690.756 82.948C689.616 82.948 688.872 83.74 688.872 85.144V88H687.588ZM691.895 86.2C691.895 85.024 692.711 84.364 694.223 84.256L695.963 84.136V83.908C695.963 83.128 695.543 82.648 694.703 82.648C693.935 82.648 693.467 83.08 693.371 83.644H692.123C692.315 82.468 693.275 81.664 694.691 81.664C696.359 81.664 697.247 82.576 697.247 83.956V88H695.999V87.076C695.759 87.664 695.063 88.144 694.079 88.144C692.747 88.144 691.895 87.364 691.895 86.2ZM693.143 86.164C693.143 86.8 693.563 87.232 694.367 87.232C695.303 87.232 695.963 86.608 695.963 85.528V85.012L694.559 85.108C693.659 85.168 693.143 85.492 693.143 86.164Z" fill="#F2F2F2"/>
<circle cx="551.5" cy="108" r="4" fill="#FF4E53"/>
<path d="M564.472 112V103.6H568.372C570.172 103.6 571.324 104.692 571.324 106.096C571.324 107.308 570.472 108.256 569.14 108.52L570.94 112H569.464L567.724 108.604H565.792V112H564.472ZM565.792 107.5H568.264C569.356 107.5 570.004 106.888 570.004 106.096C570.004 105.304 569.356 104.716 568.264 104.716H565.792V107.5ZM572.206 108.904C572.206 107.068 573.454 105.664 575.194 105.664C577.114 105.664 578.086 107.056 578.086 108.784V109.192H573.454C573.514 110.272 574.138 111.136 575.254 111.136C576.094 111.136 576.562 110.716 576.79 110.164H577.99C577.678 111.34 576.634 112.144 575.254 112.144C573.322 112.144 572.206 110.704 572.206 108.904ZM573.49 108.244H576.874C576.766 107.296 576.166 106.612 575.182 106.612C574.222 106.612 573.634 107.332 573.49 108.244ZM581.81 112.144C580.274 112.144 579.254 111.34 579.038 110.02H580.238C580.382 110.716 580.886 111.208 581.81 111.208C582.65 111.208 583.154 110.8 583.154 110.212C583.154 109.768 582.854 109.492 582.146 109.372L580.874 109.156C579.746 108.964 579.17 108.46 579.17 107.536C579.17 106.408 580.166 105.664 581.618 105.664C583.094 105.664 584.03 106.408 584.138 107.608H582.938C582.842 107.044 582.434 106.6 581.618 106.6C580.85 106.6 580.346 106.9 580.346 107.428C580.346 107.836 580.586 107.992 581.222 108.1L582.518 108.316C583.73 108.52 584.342 109.072 584.342 110.104C584.342 111.352 583.226 112.144 581.81 112.144ZM585.706 104.812V103.396H587.038V104.812H585.706ZM585.73 112V105.808H587.014V112H585.73ZM594.581 112H593.333V110.908C593.033 111.604 592.265 112.144 591.269 112.144C589.625 112.144 588.437 110.704 588.437 108.904C588.437 107.104 589.625 105.664 591.269 105.664C592.253 105.664 593.009 106.204 593.297 106.9V103.24H594.581V112ZM593.297 108.904C593.297 107.728 592.553 106.756 591.485 106.756C590.417 106.756 589.733 107.764 589.733 108.904C589.733 110.044 590.417 111.052 591.485 111.052C592.553 111.052 593.297 110.08 593.297 108.904ZM595.948 108.904C595.948 107.068 597.196 105.664 598.936 105.664C600.856 105.664 601.828 107.056 601.828 108.784V109.192H597.196C597.256 110.272 597.88 111.136 598.996 111.136C599.836 111.136 600.304 110.716 600.532 110.164H601.732C601.42 111.34 600.376 112.144 598.996 112.144C597.064 112.144 595.948 110.704 595.948 108.904ZM597.232 108.244H600.616C600.508 107.296 599.908 106.612 598.924 106.612C597.964 106.612 597.376 107.332 597.232 108.244ZM603.236 112V105.808H604.472V106.804C604.748 106.108 605.384 105.664 606.332 105.664C607.796 105.664 608.576 106.684 608.576 108.22V112H607.292V108.388C607.292 107.44 606.884 106.792 605.996 106.792C605.108 106.792 604.52 107.392 604.52 108.412V112H603.236ZM609.93 112V111.052L613.302 106.804H610.062V105.808H614.766V106.756L611.382 110.992H614.826V112H609.93ZM616.221 104.812V103.396H617.553V104.812H616.221ZM616.245 112V105.808H617.529V112H616.245ZM619.168 110.2C619.168 109.024 619.984 108.364 621.496 108.256L623.236 108.136V107.908C623.236 107.128 622.816 106.648 621.976 106.648C621.208 106.648 620.74 107.08 620.644 107.644H619.396C619.588 106.468 620.548 105.664 621.964 105.664C623.632 105.664 624.52 106.576 624.52 107.956V112H623.272V111.076C623.032 111.664 622.336 112.144 621.352 112.144C620.02 112.144 619.168 111.364 619.168 110.2ZM620.416 110.164C620.416 110.8 620.836 111.232 621.64 111.232C622.576 111.232 623.236 110.608 623.236 109.528V109.012L621.832 109.108C620.932 109.168 620.416 109.492 620.416 110.164ZM626.323 112V103.24H627.607V112H626.323ZM629.499 104.812V103.396H630.831V104.812H629.499ZM629.523 112V105.808H630.807V112H629.523ZM634.831 108.904C634.831 107.068 636.079 105.664 637.819 105.664C639.739 105.664 640.711 107.056 640.711 108.784V109.192H636.079C636.139 110.272 636.763 111.136 637.879 111.136C638.719 111.136 639.187 110.716 639.415 110.164H640.615C640.303 111.34 639.259 112.144 637.879 112.144C635.947 112.144 634.831 110.704 634.831 108.904ZM636.115 108.244H639.499C639.391 107.296 638.791 106.612 637.807 106.612C636.847 106.612 636.259 107.332 636.115 108.244ZM647.036 112.144C645.5 112.144 644.48 111.34 644.264 110.02H645.464C645.608 110.716 646.112 111.208 647.036 111.208C647.876 111.208 648.38 110.8 648.38 110.212C648.38 109.768 648.08 109.492 647.372 109.372L646.1 109.156C644.972 108.964 644.396 108.46 644.396 107.536C644.396 106.408 645.392 105.664 646.844 105.664C648.32 105.664 649.256 106.408 649.364 107.608H648.164C648.068 107.044 647.66 106.6 646.844 106.6C646.076 106.6 645.572 106.9 645.572 107.428C645.572 107.836 645.812 107.992 646.448 108.1L647.744 108.316C648.956 108.52 649.568 109.072 649.568 110.104C649.568 111.352 648.452 112.144 647.036 112.144ZM650.464 108.904C650.464 107.068 651.712 105.664 653.452 105.664C655.372 105.664 656.344 107.056 656.344 108.784V109.192H651.712C651.772 110.272 652.396 111.136 653.512 111.136C654.352 111.136 654.82 110.716 655.048 110.164H656.248C655.936 111.34 654.892 112.144 653.512 112.144C651.58 112.144 650.464 110.704 650.464 108.904ZM651.748 108.244H655.132C655.024 107.296 654.424 106.612 653.44 106.612C652.48 106.612 651.892 107.332 651.748 108.244ZM657.752 112V105.808H658.976V107.248C659.18 106.336 659.768 105.736 660.824 105.736C661.016 105.736 661.196 105.748 661.316 105.784V106.972C661.184 106.948 661.076 106.948 660.92 106.948C659.78 106.948 659.036 107.74 659.036 109.144V112H657.752ZM664.116 112L661.812 105.808H663.084L664.788 110.632L666.492 105.808H667.776L665.46 112H664.116ZM668.862 104.812V103.396H670.194V104.812H668.862ZM668.886 112V105.808H670.17V112H668.886ZM671.641 112V111.052L675.013 106.804H671.773V105.808H676.477V106.756L673.093 110.992H676.537V112H671.641ZM677.932 104.812V103.396H679.264V104.812H677.932ZM677.956 112V105.808H679.24V112H677.956Z" fill="#F2F2F2"/>
<circle cx="551.5" cy="132" r="4" fill="#C000E1"/>
<path d="M564.472 136V127.6H568.192C569.992 127.6 571.096 128.692 571.096 130.12C571.096 131.56 569.944 132.652 568.192 132.652H565.792V136H564.472ZM565.792 131.548H568.06C569.164 131.548 569.776 130.924 569.776 130.108C569.776 129.316 569.164 128.716 568.06 128.716H565.792V131.548ZM572.451 136V129.808H573.675V131.248C573.879 130.336 574.467 129.736 575.523 129.736C575.715 129.736 575.895 129.748 576.015 129.784V130.972C575.883 130.948 575.775 130.948 575.619 130.948C574.479 130.948 573.735 131.74 573.735 133.144V136H572.451ZM579.697 136.144C577.897 136.144 576.613 134.692 576.613 132.904C576.613 131.116 577.897 129.664 579.697 129.664C581.497 129.664 582.781 131.116 582.781 132.904C582.781 134.692 581.497 136.144 579.697 136.144ZM579.697 135.052C580.825 135.052 581.497 133.996 581.497 132.904C581.497 131.812 580.825 130.744 579.697 130.744C578.569 130.744 577.897 131.812 577.897 132.904C577.897 133.996 578.569 135.052 579.697 135.052ZM583.714 132.904C583.714 131.176 584.926 129.664 586.786 129.664C588.37 129.664 589.378 130.636 589.606 131.932H588.358C588.142 131.26 587.638 130.756 586.786 130.756C585.67 130.756 585.01 131.788 585.01 132.904C585.01 134.02 585.67 135.04 586.786 135.04C587.638 135.04 588.142 134.548 588.358 133.876H589.606C589.378 135.172 588.37 136.144 586.786 136.144C584.926 136.144 583.714 134.632 583.714 132.904ZM590.616 132.904C590.616 131.068 591.864 129.664 593.604 129.664C595.524 129.664 596.496 131.056 596.496 132.784V133.192H591.864C591.924 134.272 592.548 135.136 593.664 135.136C594.504 135.136 594.972 134.716 595.2 134.164H596.4C596.088 135.34 595.044 136.144 593.664 136.144C591.732 136.144 590.616 134.704 590.616 132.904ZM591.9 132.244H595.284C595.176 131.296 594.576 130.612 593.592 130.612C592.632 130.612 592.044 131.332 591.9 132.244ZM600.22 136.144C598.684 136.144 597.664 135.34 597.448 134.02H598.648C598.792 134.716 599.296 135.208 600.22 135.208C601.06 135.208 601.564 134.8 601.564 134.212C601.564 133.768 601.264 133.492 600.556 133.372L599.284 133.156C598.156 132.964 597.58 132.46 597.58 131.536C597.58 130.408 598.576 129.664 600.028 129.664C601.504 129.664 602.44 130.408 602.548 131.608H601.348C601.252 131.044 600.844 130.6 600.028 130.6C599.26 130.6 598.756 130.9 598.756 131.428C598.756 131.836 598.996 131.992 599.632 132.1L600.928 132.316C602.14 132.52 602.752 133.072 602.752 134.104C602.752 135.352 601.636 136.144 600.22 136.144ZM606.396 136.144C604.86 136.144 603.84 135.34 603.624 134.02H604.824C604.968 134.716 605.472 135.208 606.396 135.208C607.236 135.208 607.74 134.8 607.74 134.212C607.74 133.768 607.44 133.492 606.732 133.372L605.46 133.156C604.332 132.964 603.756 132.46 603.756 131.536C603.756 130.408 604.752 129.664 606.204 129.664C607.68 129.664 608.616 130.408 608.724 131.608H607.524C607.428 131.044 607.02 130.6 606.204 130.6C605.436 130.6 604.932 130.9 604.932 131.428C604.932 131.836 605.172 131.992 605.808 132.1L607.104 132.316C608.316 132.52 608.928 133.072 608.928 134.104C608.928 135.352 607.812 136.144 606.396 136.144ZM610.291 128.812V127.396H611.623V128.812H610.291ZM610.315 136V129.808H611.599V136H610.315ZM616.092 128.812V127.396H617.424V128.812H616.092ZM616.116 136V129.808H617.4V136H616.116ZM619.255 136V129.808H620.491V130.804C620.767 130.108 621.403 129.664 622.351 129.664C623.815 129.664 624.595 130.684 624.595 132.22V136H623.311V132.388C623.311 131.44 622.903 130.792 622.015 130.792C621.127 130.792 620.539 131.392 620.539 132.412V136H619.255ZM632.046 136H630.798V134.908C630.498 135.604 629.73 136.144 628.734 136.144C627.09 136.144 625.902 134.704 625.902 132.904C625.902 131.104 627.09 129.664 628.734 129.664C629.718 129.664 630.474 130.204 630.762 130.9V127.24H632.046V136ZM630.762 132.904C630.762 131.728 630.018 130.756 628.95 130.756C627.882 130.756 627.198 131.764 627.198 132.904C627.198 134.044 627.882 135.052 628.95 135.052C630.018 135.052 630.762 134.08 630.762 132.904ZM633.785 133.588V129.808H635.069V133.444C635.069 134.392 635.465 135.04 636.353 135.04C637.241 135.04 637.793 134.428 637.793 133.42V129.808H639.089V136H637.853V135.016C637.589 135.676 636.965 136.144 636.005 136.144C634.553 136.144 633.785 135.124 633.785 133.588ZM643.193 136.144C641.657 136.144 640.637 135.34 640.421 134.02H641.621C641.765 134.716 642.269 135.208 643.193 135.208C644.033 135.208 644.537 134.8 644.537 134.212C644.537 133.768 644.237 133.492 643.529 133.372L642.257 133.156C641.129 132.964 640.553 132.46 640.553 131.536C640.553 130.408 641.549 129.664 643.001 129.664C644.477 129.664 645.413 130.408 645.521 131.608H644.321C644.225 131.044 643.817 130.6 643.001 130.6C642.233 130.6 641.729 130.9 641.729 131.428C641.729 131.836 641.969 131.992 642.605 132.1L643.901 132.316C645.113 132.52 645.725 133.072 645.725 134.104C645.725 135.352 644.609 136.144 643.193 136.144ZM649.263 136.072C648.003 136.072 647.367 135.376 647.367 134.02V130.864H646.275V129.808H647.367V128.164H648.651V129.808H650.307V130.864H648.651V134.02C648.651 134.644 648.951 134.98 649.575 134.98C649.875 134.98 650.139 134.92 650.319 134.872V135.928C650.103 136.024 649.683 136.072 649.263 136.072ZM651.599 136V129.808H652.823V131.248C653.027 130.336 653.615 129.736 654.671 129.736C654.863 129.736 655.043 129.748 655.163 129.784V130.972C655.031 130.948 654.923 130.948 654.767 130.948C653.627 130.948 652.883 131.74 652.883 133.144V136H651.599ZM656.37 128.812V127.396H657.702V128.812H656.37ZM656.394 136V129.808H657.678V136H656.394ZM659.317 134.2C659.317 133.024 660.133 132.364 661.645 132.256L663.385 132.136V131.908C663.385 131.128 662.965 130.648 662.125 130.648C661.357 130.648 660.889 131.08 660.793 131.644H659.545C659.737 130.468 660.697 129.664 662.113 129.664C663.781 129.664 664.669 130.576 664.669 131.956V136H663.421V135.076C663.181 135.664 662.485 136.144 661.501 136.144C660.169 136.144 659.317 135.364 659.317 134.2ZM660.565 134.164C660.565 134.8 660.985 135.232 661.789 135.232C662.725 135.232 663.385 134.608 663.385 133.528V133.012L661.981 133.108C661.081 133.168 660.565 133.492 660.565 134.164ZM666.472 136V127.24H667.756V136H666.472ZM669.647 128.812V127.396H670.979V128.812H669.647ZM669.671 136V129.808H670.955V136H669.671Z" fill="#F2F2F2"/>
<circle cx="551.5" cy="156" r="4" fill="#00DAE8"/>
<path d="M563.896 160L567.232 151.6H568.636L571.984 160H570.604L569.848 157.972H566.02L565.264 160H563.896ZM566.452 156.808H569.428L567.94 152.872L566.452 156.808ZM572.722 156.7C572.722 154.96 573.862 153.664 575.494 153.664C576.466 153.664 577.198 154.18 577.462 154.84V153.808H578.722V159.7C578.722 161.38 577.582 162.352 575.818 162.352C574.27 162.352 573.154 161.536 572.866 160.264H574.186C574.39 160.912 574.966 161.356 575.806 161.356C576.982 161.356 577.438 160.696 577.438 159.484V158.536C577.21 159.184 576.466 159.748 575.494 159.748C573.862 159.748 572.722 158.44 572.722 156.7ZM573.994 156.7C573.994 157.84 574.678 158.716 575.746 158.716C576.742 158.716 577.438 157.912 577.438 156.7C577.438 155.5 576.706 154.684 575.746 154.684C574.666 154.684 573.994 155.56 573.994 156.7ZM580.525 160V153.808H581.749V155.248C581.953 154.336 582.541 153.736 583.597 153.736C583.789 153.736 583.969 153.748 584.089 153.784V154.972C583.957 154.948 583.849 154.948 583.693 154.948C582.553 154.948 581.809 155.74 581.809 157.144V160H580.525ZM585.295 152.812V151.396H586.627V152.812H585.295ZM585.319 160V153.808H586.603V160H585.319ZM588.027 156.904C588.027 155.176 589.239 153.664 591.099 153.664C592.683 153.664 593.691 154.636 593.919 155.932H592.671C592.455 155.26 591.951 154.756 591.099 154.756C589.983 154.756 589.323 155.788 589.323 156.904C589.323 158.02 589.983 159.04 591.099 159.04C591.951 159.04 592.455 158.548 592.671 157.876H593.919C593.691 159.172 592.683 160.144 591.099 160.144C589.239 160.144 588.027 158.632 588.027 156.904ZM598.013 160.144C596.213 160.144 594.929 158.692 594.929 156.904C594.929 155.116 596.213 153.664 598.013 153.664C599.813 153.664 601.097 155.116 601.097 156.904C601.097 158.692 599.813 160.144 598.013 160.144ZM598.013 159.052C599.141 159.052 599.813 157.996 599.813 156.904C599.813 155.812 599.141 154.744 598.013 154.744C596.885 154.744 596.213 155.812 596.213 156.904C596.213 157.996 596.885 159.052 598.013 159.052ZM602.523 160V151.24H603.807V160H602.523ZM607.966 160.072C606.706 160.072 606.07 159.376 606.07 158.02V154.864H604.978V153.808H606.07V152.164H607.354V153.808H609.01V154.864H607.354V158.02C607.354 158.644 607.654 158.98 608.278 158.98C608.578 158.98 608.842 158.92 609.022 158.872V159.928C608.806 160.024 608.386 160.072 607.966 160.072ZM610.242 157.588V153.808H611.526V157.444C611.526 158.392 611.922 159.04 612.81 159.04C613.698 159.04 614.25 158.428 614.25 157.42V153.808H615.546V160H614.31V159.016C614.046 159.676 613.422 160.144 612.462 160.144C611.01 160.144 610.242 159.124 610.242 157.588ZM617.334 160V153.808H618.558V155.248C618.762 154.336 619.35 153.736 620.406 153.736C620.598 153.736 620.778 153.748 620.898 153.784V154.972C620.766 154.948 620.658 154.948 620.502 154.948C619.362 154.948 618.618 155.74 618.618 157.144V160H617.334ZM621.641 158.2C621.641 157.024 622.457 156.364 623.969 156.256L625.709 156.136V155.908C625.709 155.128 625.289 154.648 624.449 154.648C623.681 154.648 623.213 155.08 623.117 155.644H621.869C622.061 154.468 623.021 153.664 624.437 153.664C626.105 153.664 626.993 154.576 626.993 155.956V160H625.745V159.076C625.505 159.664 624.809 160.144 623.825 160.144C622.493 160.144 621.641 159.364 621.641 158.2ZM622.889 158.164C622.889 158.8 623.309 159.232 624.113 159.232C625.049 159.232 625.709 158.608 625.709 157.528V157.012L624.305 157.108C623.405 157.168 622.889 157.492 622.889 158.164Z" fill="#F2F2F2"/>
<circle cx="551.5" cy="180" r="4" fill="#7000FF"/>
<path d="M564.472 184V175.6H568.372C570.172 175.6 571.324 176.692 571.324 178.096C571.324 179.308 570.472 180.256 569.14 180.52L570.94 184H569.464L567.724 180.604H565.792V184H564.472ZM565.792 179.5H568.264C569.356 179.5 570.004 178.888 570.004 178.096C570.004 177.304 569.356 176.716 568.264 176.716H565.792V179.5ZM572.874 176.812V175.396H574.206V176.812H572.874ZM572.898 184V177.808H574.182V184H572.898ZM576.457 184V178.864H575.461V177.808H576.457V177.316C576.457 175.9 577.105 175.096 578.581 175.096C578.905 175.096 579.205 175.12 579.361 175.168V176.176C579.241 176.14 579.049 176.128 578.821 176.128C578.101 176.128 577.741 176.524 577.741 177.268V177.808H579.265V178.864H577.741V184H576.457ZM580.477 176.812V175.396H581.809V176.812H580.477ZM580.501 184V177.808H581.785V184H580.501ZM583.57 181.588V177.808H584.854V181.444C584.854 182.392 585.25 183.04 586.138 183.04C587.026 183.04 587.578 182.428 587.578 181.42V177.808H588.874V184H587.638V183.016C587.374 183.676 586.75 184.144 585.79 184.144C584.338 184.144 583.57 183.124 583.57 181.588ZM592.966 184.072C591.706 184.072 591.07 183.376 591.07 182.02V178.864H589.978V177.808H591.07V176.164H592.354V177.808H594.01V178.864H592.354V182.02C592.354 182.644 592.654 182.98 593.278 182.98C593.578 182.98 593.842 182.92 594.022 182.872V183.928C593.806 184.024 593.386 184.072 592.966 184.072ZM595.338 176.812V175.396H596.67V176.812H595.338ZM595.362 184V177.808H596.646V184H595.362Z" fill="#F2F2F2"/>
</g>
<defs>
<filter id="filter0_bi_96_189" x="-40" y="-35.5" width="680" height="680" filterUnits="userSpaceOnUse" color-interpolation-filters="sRGB">
<feFlood flood-opacity="0" result="BackgroundImageFix"/>
<feGaussianBlur in="BackgroundImageFix" stdDeviation="20"/>
<feComposite in2="SourceAlpha" operator="in" result="effect1_backgroundBlur_96_189"/>
<feBlend mode="normal" in="SourceGraphic" in2="effect1_backgroundBlur_96_189" result="shape"/>
<feColorMatrix in="SourceAlpha" type="matrix" values="0 0 0 0 0 0 0 0 0 0 0 0 0 0 0 0 0 0 127 0" result="hardAlpha"/>
<feOffset/>
<feGaussianBlur stdDeviation="8"/>
<feComposite in2="hardAlpha" operator="arithmetic" k2="-1" k3="1"/>
<feColorMatrix type="matrix" values="0 0 0 0 0.843137 0 0 0 0 0.721569 0 0 0 0 1 0 0 0 0.25 0"/>
<feBlend mode="normal" in2="shape" result="effect2_innerShadow_96_189"/>
</filter>
<filter id="filter1_b_96_189" x="312.613" y="406.196" width="188.803" height="157.174" filterUnits="userSpaceOnUse" color-interpolation-filters="sRGB">
<feFlood flood-opacity="0" result="BackgroundImageFix"/>
<feGaussianBlur in="BackgroundImageFix" stdDeviation="20"/>
<feComposite in2="SourceAlpha" operator="in" result="effect1_backgroundBlur_96_189"/>
<feBlend mode="normal" in="SourceGraphic" in2="effect1_backgroundBlur_96_189" result="shape"/>
</filter>
<filter id="filter2_b_96_189" x="410.212" y="286.302" width="144.421" height="101.59" filterUnits="userSpaceOnUse" color-interpolation-filters="sRGB">
<feFlood flood-opacity="0" result="BackgroundImageFix"/>
<feGaussianBlur in="BackgroundImageFix" stdDeviation="20"/>
<feComposite in2="SourceAlpha" operator="in" result="effect1_backgroundBlur_96_189"/>
<feBlend mode="normal" in="SourceGraphic" in2="effect1_backgroundBlur_96_189" result="shape"/>
</filter>
<filter id="filter3_b_96_189" x="410.983" y="227.799" width="147.559" height="97.1267" filterUnits="userSpaceOnUse" color-interpolation-filters="sRGB">
<feFlood flood-opacity="0" result="BackgroundImageFix"/>
<feGaussianBlur in="BackgroundImageFix" stdDeviation="20"/>
<feComposite in2="SourceAlpha" operator="in" result="effect1_backgroundBlur_96_189"/>
<feBlend mode="normal" in="SourceGraphic" in2="effect1_backgroundBlur_96_189" result="shape"/>
</filter>
<filter id="filter4_b_96_189" x="326.529" y="45.6296" width="187.538" height="157.174" filterUnits="userSpaceOnUse" color-interpolation-filters="sRGB">
<feFlood flood-opacity="0" result="BackgroundImageFix"/>
<feGaussianBlur in="BackgroundImageFix" stdDeviation="20"/>
<feComposite in2="SourceAlpha" operator="in" result="effect1_backgroundBlur_96_189"/>
<feBlend mode="normal" in="SourceGraphic" in2="effect1_backgroundBlur_96_189" result="shape"/>
</filter>
<filter id="filter5_b_96_189" x="62.1143" y="49.425" width="168.56" height="157.174" filterUnits="userSpaceOnUse" color-interpolation-filters="sRGB">
<feFlood flood-opacity="0" result="BackgroundImageFix"/>
<feGaussianBlur in="BackgroundImageFix" stdDeviation="20"/>
<feComposite in2="SourceAlpha" operator="in" result="effect1_backgroundBlur_96_189"/>
<feBlend mode="normal" in="SourceGraphic" in2="effect1_backgroundBlur_96_189" result="shape"/>
</filter>
<filter id="filter6_b_96_189" x="-10" y="197.447" width="183.742" height="157.174" filterUnits="userSpaceOnUse" color-interpolation-filters="sRGB">
<feFlood flood-opacity="0" result="BackgroundImageFix"/>
<feGaussianBlur in="BackgroundImageFix" stdDeviation="20"/>
<feComposite in2="SourceAlpha" operator="in" result="effect1_backgroundBlur_96_189"/>
<feBlend mode="normal" in="SourceGraphic" in2="effect1_backgroundBlur_96_189" result="shape"/>
</filter>
<filter id="filter7_b_96_189" x="62.1143" y="385.954" width="183.742" height="157.174" filterUnits="userSpaceOnUse" color-interpolation-filters="sRGB">
<feFlood flood-opacity="0" result="BackgroundImageFix"/>
<feGaussianBlur in="BackgroundImageFix" stdDeviation="20"/>
<feComposite in2="SourceAlpha" operator="in" result="effect1_backgroundBlur_96_189"/>
<feBlend mode="normal" in="SourceGraphic" in2="effect1_backgroundBlur_96_189" result="shape"/>
</filter>
<filter id="filter8_bi_96_189" x="467" y="-40" width="312" height="296" filterUnits="userSpaceOnUse" color-interpolation-filters="sRGB">
<feFlood flood-opacity="0" result="BackgroundImageFix"/>
<feGaussianBlur in="BackgroundImageFix" stdDeviation="20"/>
<feComposite in2="SourceAlpha" operator="in" result="effect1_backgroundBlur_96_189"/>
<feBlend mode="normal" in="SourceGraphic" in2="effect1_backgroundBlur_96_189" result="shape"/>
<feColorMatrix in="SourceAlpha" type="matrix" values="0 0 0 0 0 0 0 0 0 0 0 0 0 0 0 0 0 0 127 0" result="hardAlpha"/>
<feOffset/>
<feGaussianBlur stdDeviation="8"/>
<feComposite in2="hardAlpha" operator="arithmetic" k2="-1" k3="1"/>
<feColorMatrix type="matrix" values="0 0 0 0 0.843137 0 0 0 0 0.721569 0 0 0 0 1 0 0 0 0.25 0"/>
<feBlend mode="normal" in2="shape" result="effect2_innerShadow_96_189"/>
</filter>
<clipPath id="clip0_96_189">
<rect y="4.5" width="600" height="600" rx="300" fill="white"/>
</clipPath>
</defs>
</svg>
