<svg width="146" height="218" viewBox="0 0 146 218" fill="none" xmlns="http://www.w3.org/2000/svg">
<path d="M82 190C82 172.327 96.3269 158 114 158C131.673 158 146 172.327 146 190V218H82V190Z" fill="url(#paint0_linear_142_322)"/>
<path d="M63 212.904C63 213.408 62.664 213.688 62.16 213.688L24.64 213.688C24.136 213.688 23.8 213.408 23.8 212.904L23.8 193.864C23.8 193.36 24.136 193.024 24.64 193.024L28.56 193.024C29.064 193.024 29.4 193.36 29.4 193.864L29.4 207.416L39.872 207.416L39.872 194.592C39.872 194.088 40.208 193.752 40.712 193.752L44.632 193.752C45.136 193.752 45.472 194.088 45.472 194.592L45.472 207.416L62.16 207.416C62.664 207.416 63 207.752 63 208.256L63 212.904ZM63.672 174.176C63.672 183.136 57.344 188.96 49.168 188.96C41.104 188.96 34.888 183.36 34.888 175.016C34.888 166.784 41.104 162.024 47.936 162.024C50.344 162.024 51.52 162.528 51.52 164.6L51.52 183.08C55.888 182.352 58.8 179.104 58.8 173.672C58.8 170.984 58.128 168.8 56.672 166.616C56.448 166.28 56.504 165.944 56.84 165.72L58.968 164.152C59.416 163.816 59.752 163.928 60.2 164.376C62.552 166.784 63.672 170.312 63.672 174.176ZM47.152 183.136L47.152 167.4C42.672 167.736 39.984 170.704 39.984 175.016C39.984 179.328 42.616 182.52 47.152 183.136ZM63 155.112C63 155.616 62.664 155.896 62.16 155.896L36.4 155.896C35.896 155.896 35.56 155.616 35.56 155.112L35.56 150.856C35.56 150.352 35.784 150.072 36.456 150.072L39.76 149.904C37.016 148.896 34.888 147.104 34.888 143.8C34.888 142.568 35.168 141.728 35.504 141.28C35.784 140.888 36.064 140.776 36.568 140.776L40.152 140.776C40.768 140.776 40.936 141.168 40.768 141.84C40.544 142.512 40.488 143.128 40.488 143.856C40.488 148.168 43.848 149.848 47.376 149.848L62.16 149.848C62.664 149.848 63 150.128 63 150.632L63 155.112ZM63 134.276C63 134.78 62.664 135.06 62.16 135.06L36.4 135.06C35.896 135.06 35.56 134.78 35.56 134.276L35.56 130.02C35.56 129.516 35.784 129.236 36.456 129.236L39.76 129.068C37.016 128.06 34.888 126.268 34.888 122.964C34.888 121.732 35.168 120.892 35.504 120.444C35.784 120.052 36.064 119.94 36.568 119.94L40.152 119.94C40.768 119.94 40.936 120.332 40.768 121.004C40.544 121.676 40.488 122.292 40.488 123.02C40.488 127.332 43.848 129.012 47.376 129.012L62.16 129.012C62.664 129.012 63 129.292 63 129.796L63 134.276ZM63.672 102.494C63.672 110.67 57.4 116.718 49.28 116.718C41.16 116.718 34.888 110.67 34.888 102.494C34.888 94.3743 41.16 88.3263 49.28 88.3263C57.4 88.3263 63.672 94.3743 63.672 102.494ZM49.28 110.894C54.544 110.894 58.072 107.254 58.072 102.494C58.072 97.7903 54.544 94.1503 49.28 94.1503C44.016 94.1503 40.488 97.7903 40.488 102.494C40.488 107.254 44.016 110.894 49.28 110.894ZM63 74.5691C63 75.0171 62.776 75.4091 62.328 75.5771L36.512 85.8251C35.896 86.0491 35.56 85.7691 35.56 85.1531L35.56 80.6171C35.56 80.1691 35.784 79.8331 36.232 79.6651L56.112 72.2731L36.232 64.9371C35.784 64.7691 35.56 64.3771 35.56 63.9291L35.56 59.4491C35.56 58.8331 35.896 58.5531 36.512 58.7771L62.328 69.0251C62.776 69.1931 63 69.5851 63 70.0331L63 74.5691ZM29.68 49.8399C29.68 51.8559 28.112 53.3679 26.152 53.3679C24.248 53.3679 22.68 51.8559 22.68 49.8399C22.68 47.8799 24.248 46.3679 26.152 46.3679C28.112 46.3679 29.68 47.8799 29.68 49.8399ZM62.16 52.9199L36.4 52.9199C35.896 52.9199 35.56 52.6399 35.56 52.1359L35.56 47.5999C35.56 47.0959 35.896 46.8159 36.4 46.8159L62.16 46.8159C62.664 46.8159 63 47.0959 63 47.5999L63 52.1359C63 52.6399 62.664 52.9199 62.16 52.9199ZM63.672 25.9187C63.672 34.8787 57.344 40.7027 49.168 40.7027C41.104 40.7027 34.888 35.1027 34.888 26.7587C34.888 18.5267 41.104 13.7667 47.936 13.7667C50.344 13.7667 51.52 14.2707 51.52 16.3427L51.52 34.8227C55.888 34.0947 58.8 30.8467 58.8 25.4147C58.8 22.7267 58.128 20.5427 56.672 18.3587C56.448 18.0227 56.504 17.6867 56.84 17.4627L58.968 15.8947C59.416 15.5587 59.752 15.6707 60.2 16.1187C62.552 18.5267 63.672 22.0547 63.672 25.9187ZM47.152 34.8787L47.152 19.1427C42.672 19.4787 39.984 22.4467 39.984 26.7587C39.984 31.0707 42.616 34.2627 47.152 34.8787Z" fill="#F2F2F2"/>
<rect x="89" y="165" width="50" height="50" rx="25" fill="#EBE6F2"/>
<path d="M101.104 195.692C98.576 195.692 96.8 193.356 96.8 189.98C96.8 186.604 98.576 184.268 101.104 184.268C103.632 184.268 105.408 186.604 105.408 189.98C105.408 193.356 103.632 195.692 101.104 195.692ZM101.104 193.852C102.48 193.852 103.456 192.268 103.456 189.98C103.456 187.692 102.48 186.108 101.104 186.108C99.728 186.108 98.752 187.692 98.752 189.98C98.752 192.268 99.728 193.852 101.104 193.852ZM107.734 195.628C107.014 195.628 106.454 195.084 106.454 194.364C106.454 193.644 107.014 193.084 107.734 193.084C108.47 193.084 109.014 193.644 109.014 194.364C109.014 195.084 108.47 195.628 107.734 195.628ZM110.152 193.212V191.676C112.168 189.18 113.304 186.764 113.576 184.46H115.56C115.288 186.716 114.328 189.02 112.584 191.42H115.528V188.78H117.336V191.42H118.632V193.212H117.336V195.5H115.432V193.212H110.152ZM121.689 189.532C120.153 189.532 119.001 188.396 119.001 186.892C119.001 185.404 120.153 184.268 121.689 184.268C123.209 184.268 124.361 185.404 124.361 186.892C124.361 188.396 123.209 189.532 121.689 189.532ZM120.169 195.5L128.169 184.46H130.089L122.089 195.5H120.169ZM121.689 188.092C122.345 188.092 122.857 187.564 122.857 186.892C122.857 186.22 122.345 185.724 121.689 185.724C121.017 185.724 120.505 186.22 120.505 186.892C120.505 187.564 121.017 188.092 121.689 188.092ZM128.553 195.692C127.033 195.692 125.881 194.556 125.881 193.052C125.881 191.548 127.033 190.428 128.553 190.428C130.073 190.428 131.225 191.548 131.225 193.052C131.225 194.556 130.073 195.692 128.553 195.692ZM128.553 194.236C129.225 194.236 129.737 193.724 129.737 193.052C129.737 192.38 129.225 191.868 128.553 191.868C127.881 191.868 127.385 192.38 127.385 193.052C127.385 193.724 127.881 194.236 128.553 194.236Z" fill="#30B67D"/>
<defs>
<linearGradient id="paint0_linear_142_322" x1="114" y1="158" x2="114" y2="218" gradientUnits="userSpaceOnUse">
<stop stop-color="#D7B8FF"/>
<stop offset="1" stop-color="#3A0085"/>
</linearGradient>
</defs>
</svg>
