<svg width="112" height="112" viewBox="0 0 112 112" fill="none" xmlns="http://www.w3.org/2000/svg">
<rect x="1" y="1" width="110" height="110" rx="55" stroke="#72CDA7" stroke-width="2"/>
<path d="M52.9312 21.3124C56.2418 42.7968 52.9312 85.1874 52.9312 85.1874L52.7312 84.5374C50.4531 82.0936 49.9855 81.4614 48.5781 80.0624L27.1563 57.0374C27.1563 57.0374 21.8667 59.8207 23.6563 60.5874C41.2125 68.1093 55.4312 92.3374 55.4312 92.3374C55.4312 92.3374 68.8125 66.703 87.2063 60.5874C89.0536 59.9732 83.6813 57.0624 83.6813 57.0624C83.6813 57.0624 62.9531 78.0311 61.3125 80.0624C59.6719 82.0936 59.75 82.1718 58.1062 84.5624L57.9312 85.1874C57.9312 85.1874 53.9688 46.8593 57.9312 21.3124C58.2305 19.3828 52.6339 19.3826 52.9312 21.3124Z" fill="#72CDA7"/>
</svg>
