<svg width="168" height="168" viewBox="0 0 168 168" fill="none" xmlns="http://www.w3.org/2000/svg">
<g filter="url(#filter0_i_79_55)">
<path fill-rule="evenodd" clip-rule="evenodd" d="M93.1009 7.26367C92.1349 3.01514 88.3573 0 84 0C79.6427 0 75.8651 3.01514 74.8991 7.26367L66.2769 45.1822C63.8885 55.6859 55.6859 63.8885 45.1822 66.2769L7.26413 74.8991C3.01513 75.8651 0 79.6427 0 84C0 88.3573 3.01513 92.1349 7.26413 93.1009L45.1822 101.723C55.6859 104.111 63.8885 112.314 66.2769 122.818L74.8991 160.736C75.8651 164.985 79.6427 168 84 168C88.3573 168 92.1349 164.985 93.1009 160.736L101.723 122.818C104.112 112.314 112.314 104.111 122.818 101.723L160.736 93.1009C164.985 92.1349 168 88.3573 168 84C168 79.6427 164.985 75.8651 160.736 74.8991L122.818 66.2769C112.314 63.8885 104.112 55.6859 101.723 45.1822L93.1009 7.26367Z" fill="url(#paint0_linear_79_55)"/>
</g>
<path d="M84 0.25C88.2405 0.25 91.917 3.18438 92.8572 7.3191L101.479 45.2376C103.889 55.8351 112.165 64.111 122.762 66.5207L160.681 75.1428C164.816 76.083 167.75 79.7594 167.75 84C167.75 88.2405 164.816 91.917 160.681 92.8572L122.762 101.479C112.165 103.889 103.889 112.165 101.479 122.762L92.8572 160.681C91.917 164.816 88.2405 167.75 84 167.75C79.7594 167.75 76.083 164.816 75.1428 160.681L66.5207 122.762C64.111 112.165 55.8351 103.889 45.2376 101.479L7.31956 92.8572L7.26413 93.1009L7.31955 92.8571C3.18437 91.917 0.25 88.2405 0.25 84C0.25 79.7594 3.18437 76.083 7.31955 75.1429L7.26413 74.8991L7.31956 75.1428L45.2376 66.5207C55.8351 64.111 64.111 55.8351 66.5207 45.2376L75.1428 7.3191C76.083 3.18438 79.7594 0.25 84 0.25Z" stroke="white" stroke-opacity="0.5" stroke-width="0.5"/>
<defs>
<filter id="filter0_i_79_55" x="0" y="0" width="168" height="168" filterUnits="userSpaceOnUse" color-interpolation-filters="sRGB">
<feFlood flood-opacity="0" result="BackgroundImageFix"/>
<feBlend mode="normal" in="SourceGraphic" in2="BackgroundImageFix" result="shape"/>
<feColorMatrix in="SourceAlpha" type="matrix" values="0 0 0 0 0 0 0 0 0 0 0 0 0 0 0 0 0 0 127 0" result="hardAlpha"/>
<feOffset/>
<feGaussianBlur stdDeviation="4"/>
<feComposite in2="hardAlpha" operator="arithmetic" k2="-1" k3="1"/>
<feColorMatrix type="matrix" values="0 0 0 0 1 0 0 0 0 1 0 0 0 0 1 0 0 0 0.5 0"/>
<feBlend mode="normal" in2="shape" result="effect1_innerShadow_79_55"/>
</filter>
<linearGradient id="paint0_linear_79_55" x1="84" y1="0" x2="84" y2="226.8" gradientUnits="userSpaceOnUse">
<stop stop-color="#30B67D"/>
<stop offset="1" stop-color="#9747FF"/>
</linearGradient>
</defs>
</svg>
