<svg width="57" height="57" viewBox="0 0 57 57" fill="none" xmlns="http://www.w3.org/2000/svg">
<rect x="0.5" y="0.5" width="56" height="56" rx="28" fill="#F2F2F2"/>
<g clip-path="url(#clip0_288_1563)">
<path d="M24.8321 40.4256C25.9135 40.4256 26.7901 39.5501 26.7901 38.4701C26.7901 37.3901 25.9135 36.5146 24.8321 36.5146C23.7507 36.5146 22.874 37.3901 22.874 38.4701C22.874 39.5501 23.7507 40.4256 24.8321 40.4256Z" fill="#5E00D6"/>
<path d="M32.4405 40.4256C33.5219 40.4256 34.3985 39.5501 34.3985 38.4701C34.3985 37.3901 33.5219 36.5146 32.4405 36.5146C31.3591 36.5146 30.4824 37.3901 30.4824 38.4701C30.4824 39.5501 31.3591 40.4256 32.4405 40.4256Z" fill="#5E00D6"/>
<path d="M48.2727 22.7713C48.2727 20.1548 47.2937 17.676 45.5315 15.7757C45.4475 15.6655 45.3357 15.5829 45.2517 15.4727C41.1958 11.2313 35.2937 8.80762 29.0839 8.80762H28.1888C21.979 8.80762 16.1049 11.2313 12.021 15.4452L11.8811 15.5829C10.007 17.5659 9 20.1823 9 22.964C9 24.231 9.30769 25.4428 9.83916 26.5445V29.7393C9.83916 34.6693 11.7972 39.2963 15.3497 42.7665C18.9021 46.2643 23.6014 48.1922 28.6364 48.1922C33.6713 48.1922 38.3706 46.2643 41.9231 42.7941C45.4755 39.3238 47.4336 34.6693 47.4336 29.7668V26.2966C47.965 25.1949 48.2727 24.0106 48.2727 22.7713ZM20.9161 38.47C20.9161 34.2837 24.3846 30.8961 28.6364 30.8961C32.8881 30.8961 36.3566 34.2837 36.3566 38.47C36.3566 42.6564 32.8881 46.044 28.6364 46.044C24.3846 46.044 20.9161 42.6288 20.9161 38.47ZM40.3846 41.2793C39.3217 42.3259 38.1189 43.2072 36.8601 43.9233C37.9231 42.3809 38.5664 40.4806 38.5664 38.47C38.5664 33.0994 34.1189 28.7478 28.6364 28.7478C23.1538 28.7478 18.7063 33.0994 18.7063 38.47C18.7063 40.4806 19.3217 42.3534 20.4126 43.9233C19.1259 43.2072 17.951 42.3259 16.8881 41.2793C13.7552 38.1946 12.021 34.1184 12.021 29.7668V29.2986C13.5035 30.5105 15.3776 31.1715 17.3357 31.1715C21.8392 31.1715 25.6713 27.3156 25.6713 22.7713V15.5553H23.4895V22.7437C23.4895 26.1313 20.6643 28.9681 17.3357 28.9681C15.6853 28.9681 14.1469 28.3347 12.972 27.2055C11.8252 26.0763 11.1818 24.5615 11.1818 22.9365C11.1818 20.7056 11.993 18.6125 13.5035 17.015L13.6154 16.9049C17.2797 13.1041 22.5944 10.9283 28.1888 10.9283H29.0839C34.6783 10.9283 39.993 13.1041 43.6573 16.9049L43.9091 17.1803C45.3077 18.6951 46.0909 20.6505 46.0909 22.7437C46.0909 25.911 43.4615 28.7753 40.3566 28.9681C38.5664 29.0783 36.8322 28.4448 35.5734 27.2055C34.4266 26.0763 33.7832 24.5615 33.7832 22.9365V15.5553H31.6014V22.964C31.6014 25.1398 32.4685 27.2055 34.035 28.7478C35.7413 30.4278 38.0909 31.2816 40.4965 31.1164C42.2587 31.0062 43.9091 30.2626 45.2238 29.1058V29.7393C45.2517 34.0909 43.5175 38.1946 40.3846 41.2793Z" fill="#5E00D6"/>
</g>
<defs>
<clipPath id="clip0_288_1563">
<rect width="40" height="40" fill="white" transform="translate(8.5 8.5)"/>
</clipPath>
</defs>
</svg>
