<svg width="146" height="322" viewBox="0 0 146 322" fill="none" xmlns="http://www.w3.org/2000/svg">
<path d="M82 196C82 178.327 96.3269 164 114 164C131.673 164 146 178.327 146 196V322H82V196Z" fill="url(#paint0_linear_142_319)"/>
<path d="M63 294.504C63 294.952 62.832 295.288 62.44 295.512L33.488 311.416L62.16 311.416C62.664 311.416 63 311.752 63 312.256L63 316.904C63 317.408 62.664 317.688 62.16 317.688L24.64 317.688C24.136 317.688 23.8 317.408 23.8 316.904L23.8 311.192C23.8 310.744 23.968 310.408 24.36 310.184L53.424 294.224L24.64 294.224C24.136 294.224 23.8 293.944 23.8 293.44L23.8 288.792C23.8 288.288 24.136 287.952 24.64 287.952L62.16 287.952C62.664 287.952 63 288.288 63 288.792L63 294.504ZM63.672 268.151C63.672 275.991 57.456 281.367 49.28 281.367C41.16 281.367 34.888 275.991 34.888 268.151C34.888 263.615 36.904 260.367 40.096 258.463L36.4 258.351C35.896 258.351 35.56 258.071 35.56 257.567L35.56 253.479C35.56 252.975 35.896 252.695 36.4 252.695L62.16 252.695C62.664 252.695 63 252.975 63 253.479L63 257.567C63 258.071 62.664 258.351 62.16 258.351L58.52 258.463C61.712 260.423 63.672 263.671 63.672 268.151ZM49.28 275.487C54.6 275.487 58.128 271.903 58.128 266.975C58.128 262.103 54.6 258.687 49.336 258.687C44.016 258.687 40.432 262.103 40.432 266.975C40.432 271.903 44.016 275.487 49.28 275.487ZM63 235.553C63 236.001 62.776 236.393 62.328 236.561L36.512 246.809C35.896 247.033 35.56 246.753 35.56 246.137L35.56 241.601C35.56 241.153 35.784 240.817 36.232 240.649L56.112 233.257L36.232 225.921C35.784 225.753 35.56 225.361 35.56 224.913L35.56 220.433C35.56 219.817 35.896 219.537 36.512 219.761L62.328 230.009C62.776 230.177 63 230.569 63 231.017L63 235.553ZM29.68 210.824C29.68 212.84 28.112 214.352 26.152 214.352C24.248 214.352 22.68 212.84 22.68 210.824C22.68 208.864 24.248 207.352 26.152 207.352C28.112 207.352 29.68 208.864 29.68 210.824ZM62.16 213.904L36.4 213.904C35.896 213.904 35.56 213.624 35.56 213.12L35.56 208.584C35.56 208.08 35.896 207.8 36.4 207.8L62.16 207.8C62.664 207.8 63 208.08 63 208.584L63 213.12C63 213.624 62.664 213.904 62.16 213.904ZM74.48 187.687C74.48 191.719 73.36 195.415 71.568 197.879C71.232 198.383 70.672 198.495 70.168 198.271L67.76 196.983C67.312 196.703 67.144 196.255 67.424 195.751C68.824 193.399 69.496 190.767 69.496 188.191C69.496 183.655 67.48 179.231 61.544 179.231L57.848 179.231C60.76 181.079 62.552 184.215 62.552 188.583C62.552 196.367 56.84 201.687 48.72 201.687C40.6 201.687 34.888 196.367 34.888 188.639C34.888 184.159 36.68 181.023 39.704 179.175L36.4 179.063C35.896 179.063 35.56 178.783 35.56 178.279L35.56 174.191C35.56 173.687 35.896 173.407 36.4 173.407L61.712 173.407C71.12 173.407 74.48 180.743 74.48 187.687ZM48.72 195.807C53.872 195.807 57.064 192.223 57.064 187.519C57.064 182.759 53.872 179.399 48.776 179.399C43.624 179.399 40.376 182.759 40.376 187.519C40.376 192.223 43.624 195.807 48.72 195.807ZM63.672 154.073C63.672 161.913 57.456 167.289 49.28 167.289C41.16 167.289 34.888 161.913 34.888 154.073C34.888 149.537 36.904 146.289 40.096 144.385L36.4 144.273C35.896 144.273 35.56 143.993 35.56 143.489L35.56 139.401C35.56 138.897 35.896 138.617 36.4 138.617L62.16 138.617C62.664 138.617 63 138.897 63 139.401L63 143.489C63 143.993 62.664 144.273 62.16 144.273L58.52 144.385C61.712 146.345 63.672 149.593 63.672 154.073ZM49.28 161.409C54.6 161.409 58.128 157.825 58.128 152.897C58.128 148.025 54.6 144.609 49.336 144.609C44.016 144.609 40.432 148.025 40.432 152.897C40.432 157.825 44.016 161.409 49.28 161.409ZM63 131.443C63 131.947 62.664 132.227 62.16 132.227L58.576 132.227C58.184 132.227 57.848 132.115 57.568 131.835L40.544 117.723L40.544 131.275C40.544 131.779 40.264 132.059 39.76 132.059L36.4 132.059C35.896 132.059 35.56 131.779 35.56 131.275L35.56 111.787C35.56 111.283 35.896 110.947 36.4 110.947L39.984 110.947C40.376 110.947 40.712 111.115 40.992 111.339L58.016 125.507L58.016 111.731C58.016 111.227 58.296 110.891 58.8 110.891L62.16 110.891C62.664 110.891 63 111.227 63 111.731L63 131.443ZM29.68 101.449C29.68 103.465 28.112 104.977 26.152 104.977C24.248 104.977 22.68 103.465 22.68 101.449C22.68 99.4892 24.248 97.9772 26.152 97.9772C28.112 97.9772 29.68 99.4892 29.68 101.449ZM62.16 104.529L36.4 104.529C35.896 104.529 35.56 104.249 35.56 103.745L35.56 99.2092C35.56 98.7052 35.896 98.4252 36.4 98.4252L62.16 98.4252C62.664 98.4252 63 98.7052 63 99.2092L63 103.745C63 104.249 62.664 104.529 62.16 104.529ZM63.672 78.0881C63.672 86.2641 57.4 92.3121 49.28 92.3121C41.16 92.3121 34.888 86.2641 34.888 78.0881C34.888 69.9681 41.16 63.9201 49.28 63.9201C57.4 63.9201 63.672 69.9681 63.672 78.0881ZM49.28 86.4881C54.544 86.4881 58.072 82.8481 58.072 78.0881C58.072 73.3841 54.544 69.7441 49.28 69.7441C44.016 69.7441 40.488 73.3841 40.488 78.0881C40.488 82.8481 44.016 86.4881 49.28 86.4881ZM63 57.0421C63 57.5461 62.664 57.8261 62.16 57.8261L36.4 57.8261C35.896 57.8261 35.56 57.5461 35.56 57.0421L35.56 52.7861C35.56 52.2821 35.784 52.0021 36.456 52.0021L39.816 51.7781C37.016 50.2101 34.888 47.4661 34.888 43.1541C34.888 37.3301 38.92 33.1861 46.144 33.1861L62.16 33.1861C62.664 33.1861 63 33.5221 63 34.0261L63 38.4501C63 38.9541 62.664 39.2341 62.16 39.2341L47.264 39.2341C42.952 39.2341 40.488 41.3621 40.488 45.2261C40.488 49.0901 42.952 51.7781 47.264 51.7781L62.16 51.7781C62.664 51.7781 63 52.0581 63 52.5621L63 57.0421ZM63.672 12.3406C63.672 21.3006 57.344 27.1246 49.168 27.1246C41.104 27.1246 34.888 21.5246 34.888 13.1806C34.888 4.94856 41.104 0.188561 47.936 0.188561C50.344 0.188561 51.52 0.692561 51.52 2.76456L51.52 21.2446C55.888 20.5166 58.8 17.2686 58.8 11.8366C58.8 9.14856 58.128 6.96456 56.672 4.78056C56.448 4.44456 56.504 4.10856 56.84 3.88456L58.968 2.31656C59.416 1.98056 59.752 2.09256 60.2 2.54056C62.552 4.94856 63.672 8.47656 63.672 12.3406ZM47.152 21.3006L47.152 5.56456C42.672 5.90056 39.984 8.86856 39.984 13.1806C39.984 17.4926 42.616 20.6846 47.152 21.3006Z" fill="#F2F2F2"/>
<rect x="89" y="171" width="50" height="50" rx="25" fill="#EBE6F2"/>
<path d="M102.364 201.5V192.94C101.756 193.484 100.908 193.82 100.06 193.82V192.028C101.164 192.028 102.252 191.436 102.924 190.46H104.268V201.5H102.364ZM106.027 199.212V197.676C108.043 195.18 109.179 192.764 109.451 190.46H111.435C111.163 192.716 110.203 195.02 108.459 197.42H111.403V194.78H113.211V197.42H114.507V199.212H113.211V201.5H111.307V199.212H106.027ZM117.564 195.532C116.028 195.532 114.876 194.396 114.876 192.892C114.876 191.404 116.028 190.268 117.564 190.268C119.084 190.268 120.236 191.404 120.236 192.892C120.236 194.396 119.084 195.532 117.564 195.532ZM116.044 201.5L124.044 190.46H125.964L117.964 201.5H116.044ZM117.564 194.092C118.22 194.092 118.732 193.564 118.732 192.892C118.732 192.22 118.22 191.724 117.564 191.724C116.892 191.724 116.38 192.22 116.38 192.892C116.38 193.564 116.892 194.092 117.564 194.092ZM124.428 201.692C122.908 201.692 121.756 200.556 121.756 199.052C121.756 197.548 122.908 196.428 124.428 196.428C125.948 196.428 127.1 197.548 127.1 199.052C127.1 200.556 125.948 201.692 124.428 201.692ZM124.428 200.236C125.1 200.236 125.612 199.724 125.612 199.052C125.612 198.38 125.1 197.868 124.428 197.868C123.756 197.868 123.26 198.38 123.26 199.052C123.26 199.724 123.756 200.236 124.428 200.236Z" fill="#30B67D"/>
<defs>
<linearGradient id="paint0_linear_142_319" x1="114" y1="164" x2="114" y2="322" gradientUnits="userSpaceOnUse">
<stop stop-color="#D7B8FF"/>
<stop offset="1" stop-color="#3A0085"/>
</linearGradient>
</defs>
</svg>
