<svg width="99" height="101" viewBox="0 0 99 101" fill="none" xmlns="http://www.w3.org/2000/svg">
<path d="M95.2361 30.697C91.7504 29.5634 88.141 28.9863 84.511 28.9863C71.2994 28.9863 59.4779 36.3419 53.607 47.7377C55.1595 42.8825 56.877 38.576 58.5591 34.8824C64.51 32.6207 69.3478 28.315 72.2185 22.5964C75.2504 16.5777 75.7248 9.73441 73.5798 3.26214L72.8785 1.32458L70.9191 1.98419C64.4428 4.10731 59.1835 8.6214 56.131 14.702C53.1884 20.5434 52.6577 27.1583 54.5887 33.3845C53.2 36.4309 51.797 39.871 50.4798 43.6766V37.4992C50.4798 17.835 34.4954 1.86052 14.8191 1.86052H1.78418V14.5989C1.78418 34.263 17.7891 50.2582 37.4654 50.2582H47.7268C47.8595 50.6104 47.9927 50.962 48.1193 51.3191C44.5866 64.2575 42.4934 80.4002 44.8424 98.988L48.9352 98.4707C46.9743 82.9532 48.2981 69.1106 50.9428 57.5054C51.471 56.8979 52.202 56.2389 53.0996 55.5395C56.5092 56.6083 60.0115 57.1632 63.5353 57.1632C78.6328 57.1632 91.8947 47.5578 96.5766 33.2942L97.216 31.336L95.2361 30.697Z" fill="#289969"/>
</svg>
