<svg width="35" height="56" viewBox="0 0 35 56" fill="none" xmlns="http://www.w3.org/2000/svg">
<path d="M35 2.21464V1.04797H33.6817C27.225 1.04797 21.6021 4.62559 18.6655 9.89923V2.06297H16.3321V9.89937C13.393 4.62566 7.76705 1.04797 1.31834 1.04797H0V2.21464C0 11.4114 7.25585 18.919 16.3321 19.3681V24.6692C13.8229 20.8922 9.53414 18.3963 4.66667 18.3963H3.37161V19.563C3.37161 26.935 9.10454 32.9746 16.3321 33.5103V39.0853C14.6107 37.1356 12.0875 35.8963 9.25166 35.8963H8.08499V37.063C8.08499 41.84 11.6974 45.7868 16.3321 46.3276V55.7296H18.6655V46.3963H18.6667V46.3278C23.3019 45.7875 26.915 41.8404 26.915 37.063L26.8333 35.8963H25.6667C22.878 35.8963 20.3774 37.1331 18.6655 39.0793V33.563H18.6667V33.5103C25.8948 32.9753 31.6283 26.9353 31.6283 19.563V18.3963H30.3333C25.4642 18.3963 21.1743 20.894 18.6655 24.6732V19.3681C27.7428 18.9202 35 11.4122 35 2.21464Z" fill="#289969"/>
</svg>
