<?xml version="1.0" encoding="UTF-8"?>
<svg id="Livello_2" data-name="Livello 2" xmlns="http://www.w3.org/2000/svg" viewBox="0 0 923.15 895.84">
  <defs>
    <style>
      .cls-1 {
        fill: #ad4d4d;
      }

      .cls-1, .cls-2, .cls-3, .cls-4, .cls-5, .cls-6, .cls-7, .cls-8, .cls-9 {
        stroke-width: 0px;
      }

      .cls-2 {
        fill: #e2b2ff;
      }

      .cls-3 {
        fill: #e9cf81;
      }

      .cls-4 {
        fill: #deb8fc;
      }

      .cls-5 {
        fill: #f98638;
      }

      .cls-6 {
        fill: #666538;
      }

      .cls-7 {
        fill: #353519;
      }

      .cls-8 {
        fill: #bab653;
      }

      .cls-9 {
        fill: #f4ece5;
      }
    </style>
  </defs>
  <g id="Illustration">
    <g>
      <path class="cls-6" d="m101.23,415.52c-.2,0-.4-.05-.58-.14s-.34-.23-.46-.41c-6.74-10.08-17.62-28.78-25.3-53.92-7.68-25.14-12.17-56.72-6.11-92.58,6-35.52,20.42-63.69,35.72-84.81,15.3-21.11,31.49-35.17,41.03-42.47.27-.21.61-.29.93-.25s.62.21.83.48c.21.27.29.61.25.92s-.21.62-.48.83c-9.42,7.21-25.41,21.09-40.53,41.95s-29.36,48.68-35.28,83.76c-5.98,35.41-1.55,66.61,6.04,91.44,7.59,24.83,18.33,43.3,24.99,53.25.19.29.25.62.19.94s-.24.6-.53.8c-.11.07-.22.12-.34.16s-.24.05-.36.05Z"/>
      <path class="cls-7" d="m123.81,893c70.62-.56,141.24-.84,211.86-.84,70.62,0,141.24.28,211.86.84,38.41.31,76.81.69,115.21,1.17s76.8,1.03,115.2,1.67c-1.77-43.26-5.77-93.37-13.91-148.75-8.14-55.38-20.43-116.01-38.79-180.31-10.2-35.72-41.13-144.02-84.78-244.19-43.65-100.17-100.03-192.22-161.13-195.44-34.13-1.8-80.62,23.55-139.77,132.4-59.15,108.86-130.96,301.22-215.74,633.45Z"/>
      <path class="cls-8" d="m107.45,471.14s-.08-.02-.12-.03-.08-.02-.12-.03c-2.95,11.66-7.02,22.98-11.15,34.28-4.13,11.3-8.33,22.59-11.53,34.18-3.21,11.59-5.35,23.8-5.42,35.83-.06,12.03,1.95,23.89,7.07,34.77,2.46,5.22,5.61,10.1,9.32,14.52,3.71,4.42,7.97,8.37,12.65,11.75,4.26,3.08,9.58,5.22,14.58,7.74,4.99,2.52,9.66,5.42,12.59,10.01,9.21,14.41,3.76,27.24-5.51,39.15-9.27,11.91-22.35,22.91-28.39,33.65-4.55,8.09-6.95,17.39-8.02,26.9-1.07,9.51-.81,19.25-.03,28.23.71,8.19,1.98,16.33,3.67,24.39,1.69,8.05,3.79,16.03,6.15,23.89.44,1.47,1.55,5.21,3.31,10.48,1.76,5.27,4.16,12.07,7.18,19.67,2.96,7.46,6.48,15.58,9.25,21.83s4.8,10.64,4.8,10.64h0l13.88-.02,13.88-.02h0s-7.98-14.87-16.65-36.03c-8.67-21.15-18.04-48.58-20.82-73.68-1.08-9.74-.09-19.48,2.71-28.52,2.81-9.04,7.44-17.4,13.65-24.39,8.45-9.5,17.34-20.12,23.54-31.75,6.2-11.63,9.71-24.26,7.4-37.81-1.16-6.77-3.66-13.29-7.25-19.15s-8.27-11.04-13.78-15.14c-4.51-3.36-9.56-6.02-14.44-8.86-4.88-2.84-9.61-5.86-13.49-9.93-3.25-3.41-5.75-7.42-7.61-11.75-1.86-4.33-3.08-8.97-3.76-13.63-1.31-9.02-.75-18.09.93-27.05s4.45-17.81,7.56-26.38c3.11-8.57,6.57-17.05,9.64-25.63,3.08-8.58,5.77-17.27,7.35-26.24-3.83-.98-7.67-1.96-11.5-2.95s-7.67-1.96-11.5-2.95Z"/>
      <path class="cls-7" d="m101.72,488.86l6.95,17.11,6.95,17.11s2.71-6.93,5.49-14.38c2.78-7.44,5.64-15.4,5.95-17.46l-5.31-9.77-5.31-9.77-7.36,8.58-7.36,8.58Z"/>
      <path class="cls-4" d="m83.5,416.95c-5.05-.25-9.91.96-14.03,3.32-4.12,2.36-7.5,5.86-9.59,10.18-2.11,4.38-2.94,9.68-2.16,14.71.78,5.03,3.18,9.79,7.51,13.08,3.03,2.3,6.67,3.62,10.51,3.96,3.84.34,7.88-.3,11.71-1.95-5.31,2.33-9.33,6.44-11.63,11.31-2.3,4.86-2.89,10.48-1.31,15.83,1.58,5.38,5.15,9.82,9.65,12.66s9.92,4.1,15.21,3.12c5.58-1.03,9.56-4.29,12.19-7.4s3.9-6.07,4.09-6.52c.18.64,1.2,4.09,3.71,7.9,2.51,3.82,6.51,8.01,12.63,10.14,5.04,1.75,10.73,1.83,15.91.3,5.18-1.53,9.85-4.67,12.84-9.37,2.41-3.79,3.22-7.76,3.35-11.06.14-3.3-.39-5.92-.63-6.99,4.01,4.67,8.91,8.08,14.1,9.96s10.65,2.25,15.76.82c.94-.26,3.91-1.09,7.11-3.09,3.19-2,6.61-5.17,8.46-10.12,1.97-5.29,1.28-10.27.02-14.01-1.25-3.75-3.07-6.26-3.33-6.62,5.94,1.86,12.01,1.33,17.12-.96s9.27-6.32,11.38-11.47c2.11-5.13,1.83-10.51.06-15.29-1.76-4.78-5.01-8.96-8.85-11.71-3.2-2.29-6.55-3.4-9.41-3.92-2.86-.52-5.24-.44-6.48-.36,1.16-.84,3.47-2.61,5.65-5.28,2.18-2.67,4.24-6.23,4.91-10.63,1.03-6.77-1.48-13.85-6.04-19.36-4.56-5.5-11.17-9.44-18.35-9.92-6.14-.41-11.34,1.79-15.16,4.27-3.82,2.48-6.24,5.23-6.83,5.91.12-1.65.27-5.06-.47-9-.74-3.94-2.37-8.4-5.8-12.18-5.65-6.22-14.72-8.96-23.63-8.38-8.91.57-17.66,4.46-22.67,11.51-3.38,4.76-4.44,10.08-4.56,14.58-.12,4.49.68,8.16,1.03,9.59-3.29-4.3-7.52-7.55-12.13-9.49-4.62-1.94-9.62-2.56-14.47-1.61-6.56,1.29-12.47,5.41-16.36,10.74s-5.76,11.87-4.26,18.01c1.14,4.65,3.98,8.11,6.77,10.53,2.79,2.42,5.53,3.78,6.48,4.23Z"/>
      <path class="cls-5" d="m128.04,415.65c-3.8-1.14-8.09-1.71-12.05-1.05-3.96.66-7.58,2.56-10.02,6.38-3.35,5.22-2.48,10.99.64,15.34s8.5,7.27,14.16,6.8c-.29.02-.75.66-1.16,1.34s-.79,1.41-.92,1.63c-2.12,3.59-2.53,7.61-1.42,11.14,1.11,3.53,3.72,6.57,7.63,8.2,3.64,1.51,7.85.88,11.59-.92,3.73-1.8,6.98-4.77,8.68-7.95.76-1.43,1.57-3.58,2.2-5.38.62-1.8,1.06-3.24,1.06-3.24,3.47,4.06,5.59,6.33,6.83,7.58s1.62,1.49,1.62,1.49c.27.17,2.15,1.32,4.88,2.09,2.73.76,6.32,1.13,9.99-.27.82-.31,1.62-.7,2.4-1.17s1.53-1.02,2.24-1.65c2.72-2.4,4.59-5.92,5.14-9.57s-.21-7.43-2.76-10.32c-.89-1.01-2.3-2.17-3.49-3.07-1.19-.91-2.16-1.56-2.16-1.56.49-.24.95-.47,1.39-.69s.85-.42,1.24-.62c3.68-1.85,6.33-5.27,7.54-9.15,1.21-3.88.98-8.22-1.1-11.91-2.67-4.73-7.36-6.9-12.2-6.93-4.84-.03-9.84,2.08-13.13,5.88.06-.68.1-1.52.04-2.5s-.22-2.07-.54-3.23c-.98-3.51-3.06-6.04-4.99-7.73-1.93-1.69-3.7-2.56-4.08-2.73-2.67-1.25-6.01-1.93-9.32-1.67-3.31.27-6.59,1.49-9.14,4.04-2.43,2.43-3.49,5.38-3.93,7.78s-.28,4.27-.25,4.55c.1.98.29,1.86.52,2.63s.49,1.43.73,1.97c.14.38.49,1.44.9,2.44s.88,1.93,1.27,2.05Z"/>
      <path class="cls-7" d="m124.28,893.01c-.76-6.58-4.06-39.35,4.24-81.31,8.3-41.96,28.2-93.12,73.82-136.46,30.59-29.06,68.48-50.56,109.16-61.97,40.67-11.42,84.13-12.75,125.84-1.49,56.04,15.13,104.4,51.77,137.92,101.47,33.53,49.69,52.22,112.43,48.92,179.76H124.28Z"/>
      <path class="cls-6" d="m124.05,893.01h653.89c3.51-12.28,9.11-35.04,10-63.27.89-28.24-2.94-61.95-18.29-96.13-22.67-50.48-65.14-90.1-115.77-113.55-50.62-23.45-109.4-30.74-164.67-16.57-58.24,14.94-99.07,50.23-126.02,83.48-26.94,33.25-40,64.44-42.7,71.17-19.51-65.22-37.89-113.88-55.16-145.99-17.27-32.1-33.42-47.65-48.45-46.63-19.07,1.29-36.34,29.22-51.81,83.8-15.47,54.58-29.14,135.81-41.01,243.69Z"/>
      <path class="cls-5" d="m450.83,713.82l-23.97,89.32-23.97,89.32h109.21l-23.97-89.32-23.97-89.32c-.91-3.41-3.79-5.11-6.66-5.11s-5.75,1.7-6.66,5.11Z"/>
      <path class="cls-5" d="m218.49,813.79l-10.63,39.61-10.63,39.61h50.25l-10.63-39.61-10.63-39.61c-.53-1.98-2.2-2.97-3.87-2.97s-3.34.99-3.87,2.97Z"/>
      <polygon class="cls-9" points="298.11 893.01 268.17 893.01 238.23 893.01 250.42 614.31 262.61 335.61 268.17 335.61 273.73 335.61 285.92 614.31 298.11 893.01"/>
      <polygon class="cls-9" points="547.53 893.01 519.95 893.01 492.38 893.01 503.31 699.09 514.25 505.18 519.81 505.18 525.37 505.18 536.45 699.09 547.53 893.01"/>
      <path class="cls-6" d="m645.49,427.56c-.27,0-.52-.09-.73-.24s-.38-.37-.46-.64c-2.43-7.79-7.63-21.36-17.57-35.84-9.94-14.48-24.62-29.87-46.03-41.29-23.88-12.74-47.36-15.78-66.49-15.04s-33.92,5.25-40.42,7.6c-.32.12-.67.09-.96-.04s-.53-.38-.65-.71c-.12-.32-.09-.67.04-.96s.38-.53.71-.64c6.62-2.39,21.69-6.99,41.18-7.74s43.41,2.34,67.75,15.33c21.81,11.64,36.78,27.32,46.91,42.07,10.13,14.75,15.42,28.58,17.9,36.52.1.33.06.67-.09.95s-.41.51-.73.61c-.06.02-.12.03-.19.04s-.12.01-.19.01Z"/>
      <path class="cls-3" d="m293.09,893.01c-10.26-16.49-13.42-34.01-10.77-49.54,2.65-15.52,11.12-29.05,24.13-37.56,8.45-5.53,20.3-9.9,32.91-11.1,12.61-1.2,25.99.79,37.51,7.97,11.12,6.93,16.91,16.47,19.93,24.67,3.02,8.2,3.27,15.05,3.3,16.61,10-2.71,19.98-1.71,28.05,1.73s14.24,9.32,16.62,16.36c1.8,5.31,1.37,11.09-.96,16.51-2.33,5.42-6.57,10.48-12.41,14.35h-138.31Z"/>
      <path class="cls-6" d="m695.66,894.13c-.09,0-.18,0-.27-.03s-.18-.05-.26-.09c-.31-.15-.53-.41-.64-.71s-.1-.64.05-.96l79.35-167.64,79.35-167.64c.15-.31.41-.53.71-.64s.64-.1.96.05c.31.15.53.41.64.71s.1.64-.05.96l-79.35,167.64-79.35,167.64c-.11.23-.27.4-.47.53s-.43.19-.66.19Z"/>
      <path class="cls-6" d="m695.66,894.13s-.08,0-.12,0-.08,0-.12-.02c-.34-.07-.62-.26-.8-.53s-.26-.6-.19-.94l47.25-240.03,47.25-240.03c.07-.34.26-.62.53-.8s.6-.26.94-.19c.34.07.62.26.8.53s.26.6.19.94l-47.25,240.03-47.25,240.03c-.06.3-.22.55-.44.73s-.5.28-.79.28Z"/>
      <path class="cls-9" d="m899.15,336.84c.63,23.65-8.39,45.31-23.47,61.22-15.08,15.91-36.24,26.06-59.88,26.69-23.65.63-45.31-8.39-61.22-23.47-15.91-15.08-26.06-36.24-26.69-59.88s8.39-45.31,23.47-61.22c15.08-15.91,36.24-26.06,59.88-26.69,23.65-.63,45.31,8.39,61.22,23.47s26.06,36.24,26.69,59.88Z"/>
      <path class="cls-9" d="m923.13,540.44c.39,14.51-5.15,27.8-14.4,37.56-9.25,9.76-22.23,15.99-36.74,16.38-14.51.39-27.8-5.15-37.56-14.4-9.76-9.25-15.99-22.23-16.38-36.74-.39-14.51,5.15-27.8,14.4-37.56s22.23-15.99,36.74-16.38,27.8,5.15,37.56,14.4c9.76,9.25,15.99,22.23,16.38,36.74Z"/>
      <path class="cls-2" d="m876.7,336.59c-4.52,0-8.95-1.64-12.6-4.46s-6.54-6.83-7.98-11.55c-4.69,2.51-9.84,3.55-14.71,3.17-4.87-.38-9.47-2.19-13.05-5.38-3.41-3.05-5.24-6.77-6.22-10.06s-1.1-6.13-1.1-7.41c0-.34.14-.66.37-.88s.54-.36.88-.36h0c.35,0,.66.14.88.37s.36.54.36.89c0,1.15.1,3.7.97,6.63s2.49,6.26,5.51,8.96c3.36,3,7.74,4.61,12.37,4.81,4.63.2,9.51-1.02,13.87-3.69l.74-.45.74-.45.19.85.19.85c1.19,5.22,4.31,9.58,8.32,12.36,4.02,2.79,8.93,4.01,13.72,2.94,3.68-.82,6.96-2.97,9.41-5.95s4.09-6.8,4.5-10.95c.03-.34.2-.64.45-.84s.57-.31.92-.28c.34.03.64.2.84.45s.31.57.28.92c-.46,4.69-2.32,8.99-5.12,12.36-2.8,3.37-6.53,5.8-10.73,6.74-.67.15-1.34.26-2,.33s-1.34.11-2,.11Z"/>
      <path class="cls-2" d="m767.68,376.36c-2.45,0-4.51-.83-6.07-1.78-1.56-.95-2.62-2.03-3.08-2.54-.23-.26-.33-.58-.32-.9s.16-.63.41-.86c.26-.23.58-.33.9-.32s.63.16.86.41c.37.41,1.22,1.28,2.47,2.05s2.88,1.44,4.81,1.44h.05c2.17-.01,4.25-.85,5.97-2.28,1.72-1.43,3.07-3.45,3.77-5.83l.25-.83.25-.83.71.5.71.5c2.1,1.48,4.6,2.03,6.93,1.74,2.32-.29,4.46-1.42,5.81-3.33,1.04-1.46,1.51-3.27,1.42-5.11s-.73-3.72-1.92-5.33c-.2-.28-.28-.61-.23-.93s.22-.61.49-.82c.28-.2.61-.28.93-.23s.61.22.82.49c1.5,2.04,2.31,4.43,2.4,6.79s-.53,4.68-1.88,6.58c-1.6,2.25-4.02,3.68-6.68,4.21s-5.57.16-8.14-1.18c-1.04,2.49-2.7,4.58-4.72,6.05-2.02,1.47-4.4,2.32-6.87,2.34h-.06Z"/>
      <path class="cls-2" d="m897.74,581.53c-.46,0-.91-.02-1.37-.07s-.91-.12-1.36-.22c-3.62-.78-6.65-3.04-8.68-6.09-2.02-3.05-3.04-6.87-2.62-10.77-3.67.12-7.18-.77-10.11-2.45s-5.27-4.16-6.6-7.22c-1.3-2.97-1.37-5.92-1.03-8.32s1.11-4.27,1.49-5.09c.15-.31.4-.54.7-.65s.64-.11.96.04c.31.15.54.4.65.7s.1.64-.04.96c-.33.7-.98,2.29-1.28,4.33-.3,2.04-.24,4.53.84,7.02,1.21,2.78,3.43,4.99,6.21,6.42,2.78,1.42,6.11,2.05,9.54,1.64l.86-.1.86-.1-.18.85-.18.85c-.74,3.52-.07,7.05,1.6,9.88,1.66,2.83,4.31,4.95,7.52,5.64,2.47.53,5.07.14,7.4-.99,2.33-1.13,4.4-3,5.81-5.42.17-.3.45-.5.76-.58s.65-.04.95.13c.3.17.5.45.58.76s.04.65-.13.95c-1.43,2.45-3.44,4.42-5.72,5.78-2.29,1.36-4.86,2.11-7.44,2.11Z"/>
      <g>
        <path class="cls-8" d="m692.18,641.23l-5.89.16-5.89.16c-.08,0-.13-.05-.14-.11s.02-.13.1-.15c4.67-1.65,8.66-4.06,11.72-6.98,3.06-2.93,5.17-6.37,6.09-10.08,1.03-4.2.39-8.16-.6-11.21s-2.33-5.19-2.68-5.74c-3.11-4.84-7.99-8.4-13.81-10.33-5.82-1.93-12.58-2.23-19.47-.54,6.38-1.48,11.75-5.01,15.49-9.69,3.73-4.67,5.83-10.48,5.65-16.51-.15-5.05-1.9-9.94-4.81-13.99-2.92-4.05-7.01-7.24-11.85-8.89-5.06-1.72-10.51-1.61-15.58.08-5.07,1.68-9.75,4.94-13.25,9.5,2.87-5.68,3.81-11.94,2.96-17.84-.85-5.9-3.49-11.42-7.79-15.64-4.37-4.28-10.12-6.89-16-7.65-5.88-.76-11.89.33-16.76,3.46-5.96,3.83-9.94,10.51-11.14,18.13-1.2,7.62.36,16.16,5.49,23.7.09.13.05.27-.04.36s-.23.11-.36.02c-5.35-3.91-11.7-5.13-17.49-4.22-5.78.91-11,3.97-14.07,8.61-3.24,4.9-3.89,11.3-2.13,17.25,1.77,5.94,5.96,11.43,12.42,14.51.01,0,.01.01.01.02s0,.01-.02,0c-8.26-1.67-16.03.26-21.95,4.17-5.92,3.91-9.99,9.79-10.84,16.02-.74,5.42.95,11.19,4.44,16.1,3.49,4.91,8.77,8.94,15.24,10.86l-6.06.16-6.06.16c-8.35.22-15.81,3.81-21.14,9.42-5.32,5.61-8.51,13.26-8.28,21.61h0c.22,8.35,3.81,15.81,9.42,21.14,5.61,5.32,13.26,8.51,21.61,8.28l24.93-.66,24.93-.66c.63,31.46,1.25,62.92,1.88,94.38.63,31.46,1.25,62.92,1.88,94.38,7.67.12,15.34.25,23,.37,7.67.12,15.34.25,23,.37-.73-31.79-1.47-63.57-2.2-95.36-.73-31.79-1.47-63.57-2.2-95.36l24.93-.66,24.93-.66c8.35-.22,15.81-3.81,21.14-9.42s8.51-13.26,8.28-21.61c-.22-8.35-3.81-15.81-9.42-21.14-5.61-5.32-13.26-8.51-21.61-8.28Z"/>
        <path class="cls-6" d="m581.77,598.18h-10.45c-.35,0-.66-.14-.88-.37s-.37-.54-.37-.88.14-.66.37-.88.54-.37.88-.37h10.45c.35,0,.66.14.88.37s.37.54.37.88-.14.66-.37.88-.54.37-.88.37Z"/>
        <path class="cls-6" d="m681.47,642.49h-32.58c-.35,0-.66-.14-.88-.37s-.37-.54-.37-.88.14-.66.37-.88.54-.37.88-.37h32.58c.35,0,.66.14.88.37s.37.54.37.88-.14.66-.37.88-.54.37-.88.37Z"/>
      </g>
      <path class="cls-3" d="m602.54,893.54c-8.22-3.98-14.15-10.65-17.28-18.21s-3.46-16.01-.49-23.55c2.44-6.17,6.93-11.32,12.63-14.85,5.7-3.53,12.6-5.45,19.85-5.16-.37-.86-3.72-9-4.82-19.86-1.1-10.85.05-24.42,8.68-36.11,9.41-12.75,25.1-19.82,41.04-20.78,15.94-.96,32.13,4.18,42.55,15.85,9.35,10.48,11.65,23.52,11.54,34.18-.11,10.66-2.63,18.92-2.92,19.82,11.85-7.45,25.36-9.58,37.68-7.29,12.32,2.29,23.44,8.99,30.5,19.21,5.88,8.5,8.53,18.83,7.94,29.25s-4.41,20.93-11.5,29.8c-29.23-.38-58.46-.77-87.7-1.15-29.23-.38-58.46-.77-87.7-1.15Z"/>
      <path class="cls-9" d="m201.74,93.33c.08-.67.54-1.12,1.09-1.28s1.18-.02,1.6.51c8.02,10.01,18.01,23.84,27.72,41.39,9.7,17.55,19.11,38.82,25.96,63.71,6.59,23.95,9.42,46.19,10.21,65.58.79,19.39-.47,35.92-2.05,48.46-.08.67-.55,1.12-1.1,1.27s-1.18.01-1.6-.51c-7.07-8.83-14.71-19.41-22.18-31.77s-14.76-26.51-21.12-42.46c-11.99-30.08-17.52-58.7-19.61-83.61-2.09-24.9-.73-46.09,1.06-61.29Z"/>
      <path class="cls-9" d="m497.01,290.01c.65.18,1.02.71,1.09,1.28s-.17,1.17-.76,1.5c-11.17,6.31-26.42,13.96-45.3,20.72-18.88,6.76-41.39,12.64-67.05,15.4-24.7,2.66-47.11,1.89-66.37-.44-19.26-2.33-35.38-6.23-47.5-9.8-.64-.19-1.02-.72-1.08-1.29s.18-1.17.76-1.5c9.85-5.56,21.52-11.4,34.92-16.79,13.4-5.39,28.53-10.31,45.3-14.03,31.61-7.01,60.75-7.87,85.67-5.94,24.92,1.93,45.61,6.67,60.32,10.88Z"/>
      <path class="cls-9" d="m262.43,319.59c.63-.23,1.25-.03,1.64.39s.55,1.05.27,1.66c-5.27,11.69-13.05,26.88-24.28,43.5-11.23,16.62-25.9,34.67-44.95,52.08-18.34,16.76-36.87,29.39-53.78,38.9s-32.21,15.91-44.1,20.2c-.63.23-1.24.02-1.63-.4s-.55-1.05-.27-1.66c4.65-10.31,10.61-21.92,18.22-34.19,7.62-12.27,16.91-25.19,28.23-38.11,21.35-24.35,44.33-42.28,65.57-55.46,21.23-13.18,40.72-21.6,55.07-26.91Z"/>
      <path class="cls-6" d="m485.62,252.34c-.31,0-.6-.11-.82-.31s-.38-.46-.42-.77c-.96-7.01-4.71-28.53-16.61-53.66-11.91-25.12-31.97-53.84-65.6-75.24-29.99-19.08-60.56-25.91-85.84-27.44-25.28-1.53-45.28,2.24-54.11,4.36-.34.08-.67.02-.95-.15s-.48-.44-.56-.77c-.08-.34-.02-.67.15-.95s.44-.48.77-.56c8.96-2.15,29.23-5.97,54.86-4.42,25.63,1.55,56.62,8.47,87.02,27.82,14.76,9.4,27.82,20.66,39.09,33.69,11.27,13.04,20.75,27.85,28.36,44.34,5.57,12.06,9.27,23.27,11.72,32.44,2.45,9.17,3.64,16.3,4.18,20.19.05.34-.05.67-.24.93s-.48.44-.83.48c-.03,0-.06,0-.09,0s-.06,0-.09,0Z"/>
      <g>
        <path class="cls-8" d="m337.92,700.1c-2.79,11.62-4.11,23.85-3.58,35.99.52,12.14,2.89,24.18,7.48,35.44,3.02,7.42,7.07,14.54,12,20.99,4.92,6.45,10.72,12.22,17.22,16.94,7.73,5.6,15.41,8.54,23.46,9.8,8.04,1.26,16.45.85,25.62-.24,6.44-.77,12.6-.35,18.26,1.26,5.66,1.6,10.8,4.39,15.21,8.35,4.06,3.66,6.88,8.31,8.82,13.36,1.93,5.05,2.98,10.51,3.5,15.77.17,1.75.42,10.57.58,18.94.16,8.37.23,16.31.05,16.31h27.19s.24-4.82.27-11.56-.15-15.39-.99-23.05c-.59-5.37-1.52-12.03-3.59-19.41-2.07-7.38-5.28-15.46-10.42-23.67-2.93-4.69-6.52-9.11-10.66-12.89-4.14-3.78-8.84-6.92-14.01-9.04-5.94-2.43-12.2-3.15-18.53-3.2s-12.74.57-18.96.82c-6.37.25-12.82-.46-18.89-2.3-6.07-1.84-11.77-4.8-16.64-9.07-15.09-13.21-18.74-31.94-17.44-51.42s7.55-39.7,12.27-55.9c2.32-7.96,4.92-16.65,7.82-26,2.9-9.35,6.11-19.35,9.63-29.93-4.62-1.67-9.24-3.33-13.86-5-4.62-1.67-9.24-3.33-13.86-5-3.59,10.01-7.09,20.36-10.48,31.04-3.39,10.68-6.67,21.69-9.8,33.02-1.39,5.03-2.72,10.02-3.99,14.96s-2.49,9.84-3.65,14.68Z"/>
        <path class="cls-6" d="m364.7,719.08c.97-4.47,1.94-8.95,2.9-13.42.97-4.47,1.94-8.95,2.9-13.42.12-.46.21-.83.3-1.15s.16-.6.22-.88c.16-.65.39-1.53.73-2.78.34-1.25.79-2.87,1.41-5,2.58-8.96,4.91-16.76,6.59-22.32s2.72-8.88,2.72-8.88c1.48-4.74,3.14-10.04,4.99-15.86,1.85-5.82,3.88-12.16,6.1-18.96-4.62-1.67-9.24-3.33-13.86-5-4.62-1.67-9.24-3.33-13.86-5-2.72,7.33-5.16,14.13-7.3,20.29s-4.01,11.69-5.58,16.48c-.33,1.01-3.47,10.62-7.05,23.25-3.59,12.64-7.63,28.31-9.78,41.45-.51,3.09-.96,6.36-1.3,9.87-.34,3.51-.56,7.26-.6,11.3-.03,2.6.03,4.99.12,7.12s.22,4,.36,5.56c5-3.77,10-7.55,14.99-11.32,5-3.77,10-7.55,14.99-11.32Z"/>
        <path class="cls-8" d="m385.4,791.07c-6.07-6.34-14.97-10.89-25.26-12.14-7.33-.89-14.38.02-20.51,2.31-.25-.98-.54-1.96-.87-2.91-3.05-8.76-9.39-16.19-18.27-20.2-8.89-4.02-18.64-3.86-27.24-.36-2.28.93-4.47,2.1-6.55,3.48-2.41-6.14-6.98-11.69-13.35-15.43-7.05-4.14-14.95-5.28-22.03-3.79-7.08,1.49-13.35,5.62-17.11,12.03-3.76,6.41-4.31,13.89-2.16,20.8,2.15,6.91,7.01,13.25,14.05,17.39,7.05,4.14,14.95,5.28,22.03,3.79.5-.11,1-.23,1.5-.36.21,3.44.88,6.8,1.99,9.98,3.05,8.76,9.39,16.18,18.27,20.2,8.89,4.02,18.65,3.86,27.24.36,2.23-.91,4.37-2.04,6.41-3.38,1.13,1.75,2.44,3.41,3.93,4.97,6.07,6.34,14.97,10.89,25.26,12.14,10.29,1.25,20.02-1.03,27.44-5.73,7.41-4.7,12.51-11.82,13.54-20.24,1.02-8.42-2.22-16.56-8.29-22.9Z"/>
        <path class="cls-6" d="m372.48,810.71s-.07,0-.11,0-.07,0-.11-.01c-7.18-1.27-14.35-2.73-21.48-4.38-7.13-1.65-14.21-3.48-21.2-5.48-16.74-4.79-33.22-10.65-49.33-17.51-16.11-6.87-31.84-14.74-47.09-23.58-.3-.17-.5-.45-.58-.76s-.05-.65.13-.95c.17-.3.45-.5.76-.58s.65-.05.95.13c15.16,8.79,30.8,16.62,46.81,23.44,16.01,6.82,32.39,12.64,49.04,17.41,6.94,1.99,13.98,3.81,21.07,5.44,7.09,1.64,14.22,3.09,21.35,4.35.34.06.62.25.81.51s.27.59.21.93c-.05.3-.21.56-.43.74s-.5.29-.8.29Z"/>
        <path class="cls-4" d="m437.23,660.82h0s0,0,0,0l.02.04.02.04c5.66,12.68,2,25.5-6.23,33.74-8.24,8.24-21.06,11.89-33.74,6.23l-.04-.02-.04-.02h0s0,0,0,0c-4.96,12.97-16.61,19.46-28.27,19.46-11.65,0-23.31-6.49-28.27-19.46h0s0,0,0,0l-.04.02-.04.02c-12.68,5.66-25.5,2-33.74-6.23-8.24-8.24-11.89-21.06-6.23-33.74l.02-.04.02-.04h0s0,0,0,0c-12.97-4.96-19.46-16.61-19.46-28.27,0-11.65,6.49-23.31,19.46-28.27h0s0,0,0,0l-.02-.04-.02-.04c-5.66-12.68-2-25.5,6.23-33.74,8.24-8.24,21.06-11.89,33.74-6.23l.04.02.04.02h0s0,0,0,0c4.96-12.97,16.61-19.46,28.27-19.46s23.31,6.49,28.27,19.46h0s0,0,0,0l.04-.02.04-.02c12.68-5.66,25.5-2,33.74,6.23,8.24,8.24,11.89,21.06,6.23,33.74l-.02.04-.02.04h0s0,0,0,0c12.97,4.96,19.46,16.61,19.46,28.27,0,11.65-6.49,23.31-19.46,28.27Z"/>
        <path class="cls-9" d="m401.63,639.31c-1.44,9.03-6.4,16.61-13.25,21.59-6.86,4.97-15.61,7.33-24.63,5.89-9.03-1.44-16.61-6.4-21.59-13.25s-7.33-15.61-5.89-24.63c1.44-9.03,6.4-16.61,13.25-21.59,6.86-4.97,15.61-7.33,24.63-5.89,9.03,1.44,16.61,6.4,21.59,13.25,4.97,6.86,7.33,15.61,5.89,24.63Z"/>
      </g>
      <path class="cls-5" d="m281.09,325.93c0,3.75-1.52,7.15-3.98,9.61-2.46,2.46-5.86,3.98-9.61,3.98s-7.15-1.52-9.61-3.98c-2.46-2.46-3.98-5.86-3.98-9.61s1.52-7.15,3.98-9.61c2.46-2.46,5.86-3.98,9.61-3.98s7.15,1.52,9.61,3.98c2.46,2.46,3.98,5.86,3.98,9.61Z"/>
      <polygon class="cls-7" points="643.92 703 628.74 703 613.55 703 629.2 723.16 644.85 743.32 644.39 723.16 643.92 703"/>
      <g>
        <path class="cls-9" d="m389.32,892.98c-.04-1.7-.03-5.17.93-9.37.95-4.21,2.84-9.16,6.54-13.82,4.15-5.22,9.16-8.29,13.76-10.16,4.61-1.87,8.81-2.53,11.35-2.94,6.19-1.01,12.48-.77,18.44.71,5.96,1.48,11.58,4.21,16.44,8.19,3.15,2.58,5.47,5.34,7.08,7.59,1.61,2.26,2.5,4.02,2.8,4.6,1.57,3.13,2.5,6.12,3.06,8.74s.74,4.86.79,6.49c-13.53,0-27.06,0-40.6-.01-13.53,0-27.06,0-40.6-.01Z"/>
        <path class="cls-5" d="m445.7,868.13c0,1.47-.75,2.8-1.96,3.77s-2.88,1.56-4.72,1.56-3.52-.6-4.72-1.56-1.96-2.29-1.96-3.77.75-2.8,1.96-3.77,2.88-1.56,4.72-1.56,3.52.6,4.72,1.56c1.21.96,1.96,2.29,1.96,3.77Z"/>
      </g>
      <path class="cls-9" d="m442.29,349.94c-.04-.48.23-.86.59-1.05s.83-.17,1.19.14c6.99,5.91,15.88,14.23,25.07,25.19,9.2,10.96,18.7,24.57,26.9,41.06,7.9,15.87,12.92,31.06,16.13,44.52,3.21,13.47,4.59,25.22,5.2,34.21.03.48-.23.86-.59,1.04s-.82.17-1.19-.14c-6.16-5.21-12.96-11.58-19.88-19.21-6.92-7.63-13.96-16.54-20.6-26.84-12.51-19.42-20.3-38.71-25.18-55.86s-6.82-32.17-7.65-43.06Z"/>
      <path class="cls-9" d="m675.96,447.24c.48.04.81.36.94.75s.04.84-.33,1.15c-6.96,5.95-16.59,13.39-28.89,20.71-12.29,7.32-27.25,14.51-44.84,19.96-16.93,5.25-32.73,7.77-46.54,8.77-13.81,1-25.63.48-34.6-.36-.48-.04-.81-.37-.93-.75s-.03-.84.33-1.15c6.14-5.24,13.51-10.93,22.15-16.54,8.65-5.61,18.57-11.13,29.8-16.02,21.18-9.23,41.46-13.83,59.17-15.88,17.71-2.06,32.85-1.57,43.73-.64Z"/>
      <path class="cls-9" d="m517.81,502.24c.46-.15.89.02,1.16.32s.36.76.15,1.19c-4.09,8.18-10.07,18.79-18.55,30.32-8.48,11.53-19.45,23.97-33.54,35.84-13.55,11.42-27.12,19.9-39.45,26.19-12.33,6.3-23.42,10.42-32.01,13.14-.46.14-.89-.02-1.15-.33s-.36-.76-.14-1.19c3.61-7.21,8.19-15.33,13.97-23.85,5.78-8.53,12.77-17.47,21.21-26.36,15.91-16.75,32.81-28.88,48.33-37.66,15.52-8.79,29.65-14.23,40.03-17.61Z"/>
      <path class="cls-5" d="m529.92,503.08c0,3.09-1.25,5.88-3.28,7.91-2.02,2.02-4.82,3.28-7.91,3.28s-5.88-1.25-7.91-3.28c-2.02-2.02-3.28-4.82-3.28-7.91s1.25-5.88,3.28-7.91c2.02-2.02,4.82-3.28,7.91-3.28s5.88,1.25,7.91,3.28c2.02,2.02,3.28,4.82,3.28,7.91Z"/>
      <path class="cls-4" d="m594.87,628.39c0,3.73-1.51,7.1-3.95,9.54s-5.81,3.95-9.54,3.95-7.1-1.51-9.54-3.95c-2.44-2.44-3.95-5.81-3.95-9.54s1.51-7.1,3.95-9.54,5.81-3.95,9.54-3.95,7.1,1.51,9.54,3.95c2.44,2.44,3.95,5.81,3.95,9.54Z"/>
      <path class="cls-4" d="m642.69,668.16c0,3.73-1.51,7.1-3.95,9.54s-5.81,3.95-9.54,3.95-7.1-1.51-9.54-3.95c-2.44-2.44-3.95-5.81-3.95-9.54s1.51-7.1,3.95-9.54c2.44-2.44,5.81-3.95,9.54-3.95s7.1,1.51,9.54,3.95c2.44,2.44,3.95,5.81,3.95,9.54Z"/>
      <path class="cls-4" d="m661.6,597.62c0,3.73-1.51,7.1-3.95,9.54-2.44,2.44-5.81,3.95-9.54,3.95s-7.1-1.51-9.54-3.95c-2.44-2.44-3.95-5.81-3.95-9.54s1.51-7.1,3.95-9.54c2.44-2.44,5.81-3.95,9.54-3.95s7.1,1.51,9.54,3.95c2.44,2.44,3.95,5.81,3.95,9.54Z"/>
      <path class="cls-6" d="m400.56,568.4c-.16,0-.32-.03-.48-.09s-.29-.16-.42-.28c-5.14-5.24-13.74-15.12-21.33-29.03-7.59-13.91-14.17-31.87-15.27-53.27-1.48-28.85,7.52-52.68,17.86-70.17,10.35-17.49,22.04-28.63,25.96-32.1.26-.23.59-.33.9-.31s.63.16.86.42c.23.26.33.58.31.9s-.16.63-.42.86c-3.84,3.41-15.31,14.34-25.46,31.48-10.15,17.15-18.97,40.51-17.52,68.79,1.07,20.98,7.53,38.57,14.97,52.21,7.45,13.64,15.88,23.32,20.92,28.46.24.25.36.57.36.89s-.13.64-.38.88c-.12.12-.26.21-.41.27s-.31.09-.46.09Z"/>
      <path class="cls-8" d="m40.23,688.77c-8.36,14.95-13.13,31-13.9,46.32-.77,15.32,2.46,29.91,10.08,41.94,6.45,10.18,15.77,18.06,24.04,23.65,8.27,5.59,15.5,8.89,17.8,9.9,4.6,2.03,8.96,3.55,12.91,4.7s7.48,1.92,10.44,2.45c-.58-5.05-1.17-10.09-1.75-15.14-.58-5.05-1.17-10.09-1.75-15.14,0,0-21.07-2.46-35.75-16.03-14.68-13.57-22.96-38.24,2.61-82.67h-24.74Z"/>
      <path class="cls-4" d="m14.87,661.58c-2.88-.14-5.65.55-8,1.89-2.35,1.34-4.28,3.34-5.47,5.81-1.2,2.5-1.68,5.52-1.23,8.39.45,2.87,1.81,5.59,4.29,7.46,1.73,1.31,3.8,2.07,6,2.26s4.5-.17,6.68-1.11c-3.03,1.33-5.32,3.67-6.63,6.45-1.31,2.77-1.65,5.98-.75,9.03.9,3.07,2.94,5.6,5.5,7.22,2.56,1.62,5.66,2.34,8.67,1.78,3.18-.59,5.45-2.45,6.95-4.22s2.23-3.46,2.33-3.72c.1.36.69,2.33,2.12,4.51s3.71,4.57,7.21,5.78c2.87,1,6.12,1.04,9.07.17s5.62-2.67,7.32-5.34c1.38-2.16,1.83-4.43,1.91-6.31.08-1.88-.22-3.37-.36-3.98,2.29,2.66,5.08,4.61,8.04,5.68,2.96,1.08,6.07,1.28,8.99.47.54-.15,2.23-.62,4.05-1.76s3.77-2.95,4.82-5.77c1.12-3.02.73-5.86.01-7.99-.71-2.14-1.75-3.57-1.9-3.78,3.39,1.06,6.85.76,9.77-.55,2.92-1.3,5.29-3.6,6.49-6.54,1.2-2.93,1.04-5.99.04-8.72-1.01-2.73-2.86-5.11-5.05-6.68-1.82-1.31-3.74-1.94-5.37-2.24-1.63-.29-2.99-.25-3.7-.2.66-.48,1.98-1.49,3.22-3.01,1.24-1.52,2.42-3.55,2.8-6.07.59-3.86-.84-7.9-3.44-11.04-2.6-3.14-6.37-5.38-10.47-5.66-3.5-.23-6.47,1.02-8.65,2.43-2.18,1.41-3.56,2.98-3.9,3.37.07-.94.15-2.89-.27-5.13s-1.35-4.79-3.31-6.95c-3.22-3.54-8.39-5.11-13.48-4.78-5.08.33-10.07,2.55-12.93,6.56-1.93,2.71-2.53,5.75-2.6,8.31-.07,2.56.39,4.65.59,5.47-1.88-2.45-4.29-4.3-6.92-5.41s-5.49-1.46-8.25-.92c-3.74.74-7.11,3.09-9.33,6.13s-3.29,6.77-2.43,10.27c.65,2.65,2.27,4.63,3.86,6.01,1.59,1.38,3.16,2.16,3.7,2.42Z"/>
      <path class="cls-5" d="m40.28,660.84c-2.17-.65-4.62-.98-6.87-.6s-4.32,1.46-5.72,3.64c-1.91,2.98-1.41,6.27.37,8.75s4.85,4.15,8.08,3.88c-.17.01-.43.38-.66.77s-.45.81-.52.93c-1.21,2.05-1.44,4.34-.81,6.35.63,2.01,2.12,3.75,4.35,4.67,2.07.86,4.48.5,6.61-.52,2.13-1.03,3.98-2.72,4.95-4.54.43-.81.9-2.04,1.25-3.07s.6-1.85.6-1.85c1.98,2.32,3.19,3.61,3.9,4.32s.92.85.92.85c.15.1,1.22.76,2.78,1.19s3.6.65,5.7-.15c.47-.18.93-.4,1.37-.67s.87-.58,1.28-.94c1.55-1.37,2.62-3.38,2.93-5.46.32-2.08-.12-4.24-1.57-5.89-.51-.58-1.31-1.24-1.99-1.75-.68-.52-1.23-.89-1.23-.89.28-.14.54-.27.79-.39s.48-.24.71-.35c2.1-1.05,3.61-3,4.3-5.22.69-2.21.56-4.69-.63-6.79-1.52-2.7-4.2-3.93-6.96-3.95-2.76-.02-5.61,1.18-7.49,3.36.04-.39.06-.87.02-1.42s-.12-1.18-.31-1.84c-.56-2-1.75-3.44-2.85-4.41s-2.11-1.46-2.33-1.56c-1.52-.71-3.43-1.1-5.31-.95-1.89.15-3.76.85-5.21,2.31-1.38,1.39-1.99,3.07-2.24,4.44s-.16,2.44-.14,2.59c.06.56.17,1.06.3,1.5s.28.82.42,1.12c.08.22.28.82.51,1.39s.5,1.1.72,1.17Z"/>
      <path class="cls-3" d="m200.35,750.23l-5.04.13-5.04.13c-.07,0-.11-.04-.12-.09s.02-.11.08-.13c3.99-1.41,7.41-3.47,10.02-5.97,2.61-2.5,4.43-5.45,5.21-8.62.89-3.59.34-6.98-.51-9.59-.85-2.61-1.99-4.44-2.29-4.91-2.66-4.14-6.84-7.19-11.81-8.84-4.98-1.65-10.76-1.9-16.65-.46,5.46-1.26,10.05-4.29,13.25-8.29s4.99-8.97,4.83-14.12c-.13-4.32-1.62-8.5-4.12-11.97-2.5-3.46-5.99-6.2-10.14-7.61-4.32-1.47-8.99-1.37-13.33.06-4.34,1.44-8.34,4.22-11.33,8.13,2.46-4.86,3.26-10.22,2.53-15.26-.73-5.04-2.99-9.77-6.67-13.38-3.74-3.66-8.66-5.9-13.69-6.55s-10.17.28-14.34,2.96c-5.1,3.27-8.5,8.99-9.53,15.51-1.03,6.52.31,13.83,4.7,20.27.08.11.05.23-.03.31s-.2.1-.31.02c-4.57-3.34-10.01-4.39-14.96-3.61s-9.41,3.39-12.03,7.37c-2.77,4.2-3.33,9.67-1.82,14.75,1.51,5.08,5.1,9.78,10.63,12.41,0,0,.01.01,0,.02s0,.01-.02,0c-7.06-1.43-13.71.22-18.78,3.57-5.07,3.34-8.55,8.38-9.27,13.7-.63,4.63.81,9.58,3.8,13.77,2.98,4.2,7.51,7.65,13.04,9.29l-5.18.14-5.18.14c-7.14.19-13.53,3.26-18.08,8.06-4.55,4.8-7.28,11.34-7.09,18.48h0s0,0,0,0c.19,7.14,3.26,13.53,8.06,18.08,4.8,4.55,11.34,7.28,18.48,7.09l21.33-.57,21.33-.57,1.77,44.45,1.77,44.45h36.72l-.73-44.97-.73-44.97,21.33-.57,21.33-.57c7.14-.19,13.53-3.26,18.08-8.06s7.28-11.34,7.09-18.48h0s0,0,0,0c-.19-7.14-3.26-13.53-8.06-18.08-4.8-4.55-11.34-7.28-18.48-7.09Z"/>
      <polygon class="cls-7" points="159.07 803.07 148.68 803.07 138.29 803.07 148.95 817.4 159.61 831.73 159.34 817.4 159.07 803.07"/>
      <path class="cls-6" d="m106.76,714.17h-8.94c-.35,0-.66-.14-.88-.37s-.37-.54-.37-.88.14-.66.37-.88.54-.37.88-.37h8.94c.35,0,.66.14.88.37s.37.54.37.88-.14.66-.37.88-.54.37-.88.37Z"/>
      <path class="cls-6" d="m191.19,752.03h-27.87c-.35,0-.66-.14-.88-.37s-.37-.54-.37-.88.14-.66.37-.88.54-.37.88-.37h27.87c.35,0,.66.14.88.37s.37.54.37.88-.14.66-.37.88-.54.37-.88.37Z"/>
      <path class="cls-6" d="m150.49,683.38c-.12,0-.25-.02-.37-.06s-.24-.1-.35-.17c-.28-.2-.46-.49-.51-.81s.01-.65.21-.93l1.43-2.02,1.43-2.02c.2-.28.49-.46.81-.51s.65.01.93.21c.28.2.46.49.51.81s-.01.65-.21.93l-1.43,2.02-1.43,2.02c-.12.17-.28.3-.46.39s-.37.13-.57.13Z"/>
      <path class="cls-9" d="m575.23,836.17l-1.45,28.64-1.45,28.64c8.79.09,17.58.18,26.37.27,8.79.09,17.58.18,26.37.27-1.01-9.83-2.02-19.66-3.03-29.49s-2.02-19.66-3.03-29.49c-1.4-13.48-12-19.96-22.43-19.68-10.42.28-20.67,7.31-21.35,20.85Z"/>
      <path class="cls-5" d="m606.03,828.7c0,.7-.41,1.33-1.08,1.79s-1.58.74-2.6.74-1.93-.28-2.6-.74-1.08-1.09-1.08-1.79.41-1.33,1.08-1.79,1.58-.74,2.6-.74,1.93.28,2.6.74,1.08,1.09,1.08,1.79Z"/>
      <path class="cls-5" d="m613.97,839.17c0,1.03-.52,1.96-1.37,2.63s-2.01,1.09-3.3,1.09-2.45-.42-3.3-1.09-1.37-1.6-1.37-2.63.52-1.96,1.37-2.63,2.01-1.09,3.3-1.09,2.45.42,3.3,1.09,1.37,1.6,1.37,2.63Z"/>
      <path class="cls-8" d="m132.91,626.5s7.51-18.63,18.75-40.85c11.24-22.22,26.21-48.03,41.13-62.37,8.15-7.83,18.82-7.61,26.54-2.75,7.72,4.86,12.5,14.35,8.86,25.05-1.68,4.94-4.5,10.49-8.89,16.67-4.39,6.18-10.36,12.99-18.34,20.45l-27.67,28.64-27.67,28.64s-.91-1.62-2.95-4.11c-2.04-2.49-5.22-5.86-9.76-9.36Z"/>
      <path class="cls-6" d="m144.58,627.79c-.13,0-.26-.02-.38-.06s-.25-.1-.36-.18c-.28-.2-.45-.5-.5-.82s.02-.65.23-.93l33.6-45.82,33.6-45.82c.2-.28.5-.45.82-.5s.65.02.93.23c.28.2.45.5.5.82s-.02.65-.23.93l-33.6,45.82-33.6,45.82c-.12.17-.28.29-.45.38s-.36.13-.56.13Z"/>
      <path class="cls-9" d="m741.23,895.29l-9.89.26-9.89.26c-3.98.11-7.57-1.53-10.09-4.18s-3.95-6.32-3.64-10.3l2.7-33.76,2.7-33.76,15.66-.42,15.66-.42,4.85,33.49,4.85,33.49c.57,3.97-.65,7.75-3.02,10.56s-5.89,4.66-9.9,4.76Z"/>
      <polygon class="cls-1" points="713.14 813.81 730.84 827.48 748.54 841.16 746.5 827.07 744.47 812.97 728.8 813.39 713.14 813.81"/>
      <path class="cls-5" d="m795.89,811.67l-64.72,1.72-64.72,1.72c-.99.03-1.89-.35-2.56-.98s-1.09-1.51-1.11-2.5l-.07-2.57-.07-2.57c-.45-16.86,5.98-32.3,16.73-43.64,10.75-11.34,25.83-18.58,42.69-19.03l7.24-.19,7.24-.19c16.86-.45,32.3,5.98,43.64,16.73s18.58,25.83,19.03,42.69l.07,2.57.07,2.57c.03.99-.35,1.89-.98,2.56s-1.51,1.09-2.5,1.11Z"/>
      <path class="cls-1" d="m723.84,788.76c-.35,0-.66-.14-.88-.37s-.37-.54-.37-.88v-40.36l-14.54,11.4-14.54,11.4c-.27.21-.6.3-.92.26s-.62-.2-.83-.47c-.21-.27-.3-.6-.26-.92s.2-.62.47-.83l14.7-11.53,14.7-11.53c.29-.31.65-.53,1.04-.63s.82-.09,1.22.05c.44.15.8.42,1.06.78s.39.78.39,1.25v41.14c0,.35-.14.66-.37.88s-.54.37-.88.37Z"/>
      <path class="cls-1" d="m755.44,776.8c-.16,0-.31-.03-.46-.09s-.29-.15-.41-.26l-15.96-15.35-15.96-15.35.31-.94.31-.94.58.14.58.14,17.03,4.91,17.03,4.91c.33.1.59.32.75.6s.2.62.11.95c-.1.33-.32.59-.6.75s-.62.2-.95.11l-14.65-4.22-14.65-4.22,13.9,13.36,13.9,13.36c.25.24.38.56.38.88s-.11.64-.35.89c-.12.13-.27.22-.42.29s-.32.1-.48.1Z"/>
      <path class="cls-3" d="m788.67,96.95l-13.08,6.69-13.08,6.69c-.72.37-1.21,1.01-1.4,1.73s-.09,1.52.35,2.2l7.98,12.32,7.98,12.32c.61.94.56,2.03.07,2.87s-1.4,1.43-2.52,1.37l-14.67-.76-14.67-.76c-.81-.04-1.56.27-2.08.8-.53.53-.84,1.27-.8,2.08l.76,14.67.76,14.67c.06,1.12-.53,2.04-1.37,2.52-.84.48-1.93.54-2.87-.07l-12.32-7.98-12.32-7.98c-.68-.44-1.48-.54-2.2-.35s-1.36.68-1.73,1.4l-6.69,13.08-6.69,13.08c-.51,1-1.48,1.5-2.44,1.5s-1.93-.5-2.44-1.5l-6.69-13.08-6.69-13.08c-.37-.72-1.01-1.21-1.73-1.4s-1.52-.09-2.2.35l-12.32,7.98-12.32,7.98c-.94.61-2.03.56-2.87.07-.84-.48-1.43-1.4-1.37-2.52l.76-14.67.76-14.67c.04-.81-.27-1.56-.8-2.08-.53-.53-1.27-.84-2.08-.8l-14.67.76-14.67.76c-1.12.06-2.04-.53-2.52-1.37s-.54-1.93.07-2.87l7.98-12.32,7.98-12.32c.44-.68.54-1.48.35-2.2s-.68-1.36-1.4-1.73l-13.08-6.69-13.08-6.69c-1-.51-1.5-1.48-1.5-2.44s.5-1.93,1.5-2.44l13.08-6.69,13.08-6.69c.72-.37,1.21-1.01,1.4-1.73s.09-1.52-.35-2.2l-7.98-12.32-7.98-12.32c-.61-.94-.56-2.03-.07-2.87s1.4-1.43,2.52-1.37l14.67.76,14.67.76c.81.04,1.56-.27,2.08-.8s.84-1.27.8-2.08l-.76-14.67-.76-14.67c-.06-1.12.53-2.04,1.37-2.52s1.93-.54,2.87.07l12.32,7.98,12.32,7.98c.68.44,1.48.54,2.2.35s1.36-.68,1.73-1.4l6.69-13.08,6.69-13.08c.51-1,1.48-1.5,2.44-1.5s1.93.5,2.44,1.5l6.69,13.08,6.69,13.08c.37.72,1.01,1.21,1.73,1.4s1.52.09,2.2-.35l12.32-7.98,12.32-7.98c.94-.61,2.03-.56,2.87-.07s1.43,1.4,1.37,2.52l-.76,14.67-.76,14.67c-.04.81.27,1.56.8,2.08s1.27.84,2.08.8l14.67-.76,14.67-.76c1.12-.06,2.04.53,2.52,1.37s.54,1.93-.07,2.87l-7.98,12.32-7.98,12.32c-.44.68-.54,1.48-.35,2.2s.68,1.36,1.4,1.73l13.08,6.69,13.08,6.69c1,.51,1.5,1.48,1.5,2.44s-.5,1.93-1.5,2.44Z"/>
      <path class="cls-5" d="m750.57,94.51c0,15.16-6.15,28.89-16.08,38.83s-23.67,16.08-38.83,16.08-28.89-6.15-38.83-16.08c-9.94-9.94-16.08-23.67-16.08-38.83s6.15-28.89,16.08-38.83c9.94-9.94,23.67-16.08,38.83-16.08s28.89,6.15,38.83,16.08,16.08,23.67,16.08,38.83Z"/>
    </g>
  </g>
</svg>