<svg width="146" height="496" viewBox="0 0 146 496" fill="none" xmlns="http://www.w3.org/2000/svg">
<path d="M82 32C82 14.3269 96.3269 0 114 0C131.673 0 146 14.3269 146 32V496H82V32Z" fill="url(#paint0_linear_142_318)"/>
<path d="M63 483.232C63 483.736 62.664 484.016 62.16 484.016L29.4 484.016L29.4 492.024C29.4 492.528 29.064 492.808 28.56 492.808L24.64 492.808C24.136 492.808 23.8 492.528 23.8 492.024L23.8 469.792C23.8 469.288 24.136 468.952 24.64 468.952L28.56 468.952C29.064 468.952 29.4 469.288 29.4 469.792L29.4 477.744L62.16 477.744C62.664 477.744 63 478.08 63 478.584L63 483.232ZM63 464.011C63 464.515 62.664 464.795 62.16 464.795L36.4 464.795C35.896 464.795 35.56 464.515 35.56 464.011L35.56 459.755C35.56 459.251 35.784 458.971 36.456 458.971L39.76 458.803C37.016 457.795 34.888 456.003 34.888 452.699C34.888 451.467 35.168 450.627 35.504 450.179C35.784 449.787 36.064 449.675 36.568 449.675L40.152 449.675C40.768 449.675 40.936 450.067 40.768 450.739C40.544 451.411 40.488 452.027 40.488 452.755C40.488 457.067 43.848 458.747 47.376 458.747L62.16 458.747C62.664 458.747 63 459.027 63 459.531L63 464.011ZM63.672 433.237C63.672 441.077 57.456 446.453 49.28 446.453C41.16 446.453 34.888 441.077 34.888 433.237C34.888 428.701 36.904 425.453 40.096 423.549L36.4 423.437C35.896 423.437 35.56 423.157 35.56 422.653L35.56 418.565C35.56 418.061 35.896 417.781 36.4 417.781L62.16 417.781C62.664 417.781 63 418.061 63 418.565L63 422.653C63 423.157 62.664 423.437 62.16 423.437L58.52 423.549C61.712 425.509 63.672 428.757 63.672 433.237ZM49.28 440.573C54.6 440.573 58.128 436.989 58.128 432.061C58.128 427.189 54.6 423.773 49.336 423.773C44.016 423.773 40.432 427.189 40.432 432.061C40.432 436.989 44.016 440.573 49.28 440.573ZM63.672 401.535C63.672 406.015 61.6 409.263 59.304 411.167C58.912 411.503 58.352 411.503 57.792 411.111L55.776 409.655C55.216 409.263 55.272 408.759 55.664 408.311C57.4 406.295 58.52 404.335 58.52 401.815C58.52 399.351 57.512 397.615 55.328 397.615C53.424 397.615 52.528 398.903 51.576 401.143L50.232 404.503C48.832 407.975 46.592 410.607 42.728 410.607C37.8 410.607 34.888 406.407 34.888 401.535C34.888 398.175 36.288 395.039 38.92 392.911C39.312 392.575 39.76 392.631 40.096 392.967L42.168 394.703C42.672 395.151 42.616 395.543 42.168 396.047C40.544 397.783 39.76 399.463 39.76 401.255C39.76 403.383 40.824 404.839 42.672 404.839C44.576 404.839 45.416 403.383 46.256 401.255L47.6 397.951C49 394.423 51.296 391.623 55.496 391.623C60.872 391.679 63.672 396.271 63.672 401.535ZM73.64 384.495C73.64 384.999 73.304 385.279 72.8 385.279L36.4 385.279C35.896 385.279 35.56 384.999 35.56 384.495L35.56 380.407C35.56 379.903 35.896 379.623 36.4 379.623L40.096 379.511C36.904 377.607 34.888 374.359 34.888 369.823C34.888 361.983 41.16 356.607 49.28 356.607C57.456 356.607 63.672 361.983 63.672 369.823C63.672 374.079 61.88 377.271 58.912 379.231L72.8 379.231C73.304 379.231 73.64 379.511 73.64 380.015L73.64 384.495ZM49.336 379.287C54.6 379.287 58.128 375.871 58.128 370.999C58.128 366.071 54.6 362.487 49.28 362.487C44.016 362.487 40.432 366.071 40.432 370.999C40.432 375.871 44.016 379.287 49.336 379.287ZM63.672 337.674C63.672 345.85 57.4 351.898 49.28 351.898C41.16 351.898 34.888 345.85 34.888 337.674C34.888 329.554 41.16 323.506 49.28 323.506C57.4 323.506 63.672 329.554 63.672 337.674ZM49.28 346.074C54.544 346.074 58.072 342.434 58.072 337.674C58.072 332.97 54.544 329.33 49.28 329.33C44.016 329.33 40.488 332.97 40.488 337.674C40.488 342.434 44.016 346.074 49.28 346.074ZM63 316.628C63 317.132 62.664 317.412 62.16 317.412L36.4 317.412C35.896 317.412 35.56 317.132 35.56 316.628L35.56 312.372C35.56 311.868 35.784 311.588 36.456 311.588L39.76 311.42C37.016 310.412 34.888 308.62 34.888 305.316C34.888 304.084 35.168 303.244 35.504 302.796C35.784 302.404 36.064 302.292 36.568 302.292L40.152 302.292C40.768 302.292 40.936 302.684 40.768 303.356C40.544 304.028 40.488 304.644 40.488 305.372C40.488 309.684 43.848 311.364 47.376 311.364L62.16 311.364C62.664 311.364 63 311.644 63 312.148L63 316.628ZM63.336 286.229C63.336 290.317 61.376 293.397 56.28 293.397L40.376 293.397L40.376 296.925C40.376 297.429 40.04 297.709 39.536 297.709L36.4 297.709C35.896 297.709 35.56 297.429 35.56 296.925L35.56 293.397L29.12 293.397C28.616 293.397 28.28 293.117 28.28 292.613L28.28 288.077C28.28 287.573 28.616 287.293 29.12 287.293L35.56 287.293L35.56 282.869C35.56 282.365 35.896 282.029 36.4 282.029L39.536 282.029C40.04 282.029 40.376 282.365 40.376 282.869L40.376 287.293L55.552 287.293C57.4 287.293 58.184 286.397 58.184 284.829C58.184 284.381 58.184 283.709 58.128 283.093C58.016 282.421 58.296 282.085 58.856 282.085L61.88 282.085C63 282.085 63.336 284.549 63.336 286.229ZM29.68 273.152C29.68 275.168 28.112 276.68 26.152 276.68C24.248 276.68 22.68 275.168 22.68 273.152C22.68 271.192 24.248 269.68 26.152 269.68C28.112 269.68 29.68 271.192 29.68 273.152ZM62.16 276.232L36.4 276.232C35.896 276.232 35.56 275.952 35.56 275.448L35.56 270.912C35.56 270.408 35.896 270.128 36.4 270.128L62.16 270.128C62.664 270.128 63 270.408 63 270.912L63 275.448C63 275.952 62.664 276.232 62.16 276.232ZM63.672 242.832C63.672 247.312 61.6 250.56 59.304 252.464C58.912 252.8 58.352 252.8 57.792 252.408L55.776 250.952C55.216 250.56 55.272 250.056 55.664 249.608C57.4 247.592 58.52 245.632 58.52 243.112C58.52 240.648 57.512 238.912 55.328 238.912C53.424 238.912 52.528 240.2 51.576 242.44L50.232 245.8C48.832 249.272 46.592 251.904 42.728 251.904C37.8 251.904 34.888 247.704 34.888 242.832C34.888 239.472 36.288 236.336 38.92 234.208C39.312 233.872 39.76 233.928 40.096 234.264L42.168 236C42.672 236.448 42.616 236.84 42.168 237.344C40.544 239.08 39.76 240.76 39.76 242.552C39.76 244.68 40.824 246.136 42.672 246.136C44.576 246.136 45.416 244.68 46.256 242.552L47.6 239.248C49 235.72 51.296 232.92 55.496 232.92C60.872 232.976 63.672 237.568 63.672 242.832ZM63.672 216.664C63.672 222.488 59.64 226.576 52.416 226.576L36.4 226.576C35.896 226.576 35.56 226.296 35.56 225.792L35.56 221.312C35.56 220.808 35.896 220.528 36.4 220.528L51.296 220.528C55.608 220.528 58.072 218.4 58.072 214.536C58.072 210.728 55.608 207.984 51.296 207.984L36.4 207.984C35.896 207.984 35.56 207.704 35.56 207.2L35.56 202.776C35.56 202.272 35.896 201.936 36.4 201.936L62.16 201.936C62.664 201.936 63 202.272 63 202.776L63 206.976C63 207.536 62.776 207.76 62.104 207.816L58.744 207.984C61.544 209.552 63.672 212.352 63.672 216.664ZM63.672 174.692C63.672 179.172 61.6 182.42 59.304 184.324C58.912 184.66 58.352 184.66 57.792 184.268L55.776 182.812C55.216 182.42 55.272 181.916 55.664 181.468C57.4 179.452 58.52 177.492 58.52 174.972C58.52 172.508 57.512 170.772 55.328 170.772C53.424 170.772 52.528 172.06 51.576 174.3L50.232 177.66C48.832 181.132 46.592 183.764 42.728 183.764C37.8 183.764 34.888 179.564 34.888 174.692C34.888 171.332 36.288 168.196 38.92 166.068C39.312 165.732 39.76 165.788 40.096 166.124L42.168 167.86C42.672 168.308 42.616 168.7 42.168 169.204C40.544 170.94 39.76 172.62 39.76 174.412C39.76 176.54 40.824 177.996 42.672 177.996C44.576 177.996 45.416 176.54 46.256 174.412L47.6 171.108C49 167.58 51.296 164.78 55.496 164.78C60.872 164.836 63.672 169.428 63.672 174.692ZM63.336 149.729C63.336 153.817 61.376 156.897 56.28 156.897L40.376 156.897L40.376 160.425C40.376 160.929 40.04 161.209 39.536 161.209L36.4 161.209C35.896 161.209 35.56 160.929 35.56 160.425L35.56 156.897L29.12 156.897C28.616 156.897 28.28 156.617 28.28 156.113L28.28 151.577C28.28 151.073 28.616 150.793 29.12 150.793L35.56 150.793L35.56 146.369C35.56 145.865 35.896 145.529 36.4 145.529L39.536 145.529C40.04 145.529 40.376 145.865 40.376 146.369L40.376 150.793L55.552 150.793C57.4 150.793 58.184 149.897 58.184 148.329C58.184 147.881 58.184 147.209 58.128 146.593C58.016 145.921 58.296 145.585 58.856 145.585L61.88 145.585C63 145.585 63.336 148.049 63.336 149.729ZM63 138.948C63 139.452 62.664 139.732 62.16 139.732L36.4 139.732C35.896 139.732 35.56 139.452 35.56 138.948L35.56 134.692C35.56 134.188 35.784 133.908 36.456 133.908L39.76 133.74C37.016 132.732 34.888 130.94 34.888 127.636C34.888 126.404 35.168 125.564 35.504 125.116C35.784 124.724 36.064 124.612 36.568 124.612L40.152 124.612C40.768 124.612 40.936 125.004 40.768 125.676C40.544 126.348 40.488 126.964 40.488 127.692C40.488 132.004 43.848 133.684 47.376 133.684L62.16 133.684C62.664 133.684 63 133.964 63 134.468L63 138.948ZM63.672 108.174C63.672 116.014 57.456 121.39 49.28 121.39C41.16 121.39 34.888 116.014 34.888 108.174C34.888 103.638 36.904 100.39 40.096 98.4862L36.4 98.3742C35.896 98.3742 35.56 98.0942 35.56 97.5902L35.56 93.5022C35.56 92.9982 35.896 92.7182 36.4 92.7182L62.16 92.7182C62.664 92.7182 63 92.9982 63 93.5022L63 97.5902C63 98.0942 62.664 98.3742 62.16 98.3742L58.52 98.4862C61.712 100.446 63.672 103.694 63.672 108.174ZM49.28 115.51C54.6 115.51 58.128 111.926 58.128 106.998C58.128 102.126 54.6 98.7102 49.336 98.7102C44.016 98.7102 40.432 102.126 40.432 106.998C40.432 111.926 44.016 115.51 49.28 115.51ZM63.672 73.3929C63.672 81.2329 57.456 86.6089 49.28 86.6089C41.16 86.6089 34.888 81.2329 34.888 73.3929C34.888 69.0809 36.68 65.9449 39.648 63.9849L23.8 63.9849C23.296 63.9849 22.96 63.7049 22.96 63.2009L22.96 58.7209C22.96 58.2169 23.296 57.9369 23.8 57.9369L62.16 57.9369C62.664 57.9369 63 58.2169 63 58.7209L63 62.8089C63 63.3129 62.664 63.5929 62.16 63.5929L58.52 63.7049C61.712 65.6649 63.672 68.9129 63.672 73.3929ZM49.28 80.7289C54.6 80.7289 58.128 77.1449 58.128 72.2169C58.128 67.3449 54.6 63.9289 49.336 63.9289C44.016 63.9289 40.432 67.3449 40.432 72.2169C40.432 77.1449 44.016 80.7289 49.28 80.7289ZM63.672 38.6117C63.672 46.4517 57.456 51.8277 49.28 51.8277C41.16 51.8277 34.888 46.4517 34.888 38.6117C34.888 34.0757 36.904 30.8277 40.096 28.9237L36.4 28.8117C35.896 28.8117 35.56 28.5317 35.56 28.0277L35.56 23.9397C35.56 23.4357 35.896 23.1557 36.4 23.1557L62.16 23.1557C62.664 23.1557 63 23.4357 63 23.9397L63 28.0277C63 28.5317 62.664 28.8117 62.16 28.8117L58.52 28.9237C61.712 30.8837 63.672 34.1317 63.672 38.6117ZM49.28 45.9477C54.6 45.9477 58.128 42.3637 58.128 37.4357C58.128 32.5637 54.6 29.1477 49.336 29.1477C44.016 29.1477 40.432 32.5637 40.432 37.4357C40.432 42.3637 44.016 45.9477 49.28 45.9477Z" fill="#F2F2F2"/>
<rect x="89" y="8" width="50" height="50" rx="25" fill="#EBE6F2"/>
<path d="M99.972 38.5C100.612 35.412 101.956 32.34 104.052 29.252H99.156V27.46H106.452V28.948C104.18 32.132 102.74 35.316 102.132 38.5H99.972ZM107.332 38.5V37.14C107.332 33.732 112.692 33.252 112.692 30.772C112.692 29.796 111.972 29.172 111.028 29.172C110.068 29.172 109.348 29.796 109.348 30.74H107.412C107.412 28.74 108.98 27.268 111.044 27.268C113.076 27.268 114.644 28.708 114.644 30.692C114.644 34.1 110.148 34.852 109.284 36.708H114.756V38.5H107.332ZM118.845 32.532C117.309 32.532 116.157 31.396 116.157 29.892C116.157 28.404 117.309 27.268 118.845 27.268C120.365 27.268 121.517 28.404 121.517 29.892C121.517 31.396 120.365 32.532 118.845 32.532ZM117.325 38.5L125.325 27.46H127.245L119.245 38.5H117.325ZM118.845 31.092C119.501 31.092 120.013 30.564 120.013 29.892C120.013 29.22 119.501 28.724 118.845 28.724C118.173 28.724 117.661 29.22 117.661 29.892C117.661 30.564 118.173 31.092 118.845 31.092ZM125.709 38.692C124.189 38.692 123.037 37.556 123.037 36.052C123.037 34.548 124.189 33.428 125.709 33.428C127.229 33.428 128.381 34.548 128.381 36.052C128.381 37.556 127.229 38.692 125.709 38.692ZM125.709 37.236C126.381 37.236 126.893 36.724 126.893 36.052C126.893 35.38 126.381 34.868 125.709 34.868C125.037 34.868 124.541 35.38 124.541 36.052C124.541 36.724 125.037 37.236 125.709 37.236Z" fill="#30B67D"/>
<defs>
<linearGradient id="paint0_linear_142_318" x1="114" y1="0" x2="114" y2="496" gradientUnits="userSpaceOnUse">
<stop stop-color="#D7B8FF"/>
<stop offset="1" stop-color="#3A0085"/>
</linearGradient>
</defs>
</svg>
